M48
; DRILL file {KiCad (5.1.5)-3} date 5/2/2021 6:30:12 PM
; FORMAT={-:-/ absolute / inch / decimal}
; #@! TF.CreationDate,2021-05-02T18:30:12+02:00
; #@! TF.GenerationSoftware,Kicad,Pcbnew,(5.1.5)-3
; #@! TF.FileFunction,Plated,1,2,PTH
FMAT,2
INCH
T1C0.0177
T2C0.0354
T3C0.0394
T4C0.0591
%
G90
G05
T2
X4.1417Y-3.7028
X4.2165Y-3.7028
X4.2913Y-3.7028
T3
X3.1213Y-3.8805
X3.1213Y-3.9887
X3.2151Y-3.8263
X3.2151Y-3.9346
X3.2151Y-4.0429
X3.3088Y-3.8805
X3.3088Y-3.9887
X4.5652Y-3.8805
X4.5652Y-3.9887
X4.6589Y-3.8263
X4.6589Y-3.9346
X4.6589Y-4.0429
X4.7527Y-3.8805
X4.7527Y-3.9887
T4
X4.0551Y-3.7028
X4.378Y-3.7028
T1
G00X3.4872Y-3.685
M15
G01X3.4872Y-3.6535
M16
G05
G00X3.7136Y-3.6535
M15
G01X3.7136Y-3.685
M16
G05
T0
M30
