G04 #@! TF.GenerationSoftware,KiCad,Pcbnew,(5.1.5)-3*
G04 #@! TF.CreationDate,2021-05-02T18:30:09+02:00*
G04 #@! TF.ProjectId,Stacked desk light,53746163-6b65-4642-9064-65736b206c69,rev?*
G04 #@! TF.SameCoordinates,Original*
G04 #@! TF.FileFunction,Copper,L2,Bot*
G04 #@! TF.FilePolarity,Positive*
%FSLAX46Y46*%
G04 Gerber Fmt 4.6, Leading zero omitted, Abs format (unit mm)*
G04 Created by KiCad (PCBNEW (5.1.5)-3) date 2021-05-02 18:30:09*
%MOMM*%
%LPD*%
G04 APERTURE LIST*
%ADD10C,2.200000*%
%ADD11C,1.800000*%
%ADD12O,2.200000X3.500000*%
%ADD13O,1.500000X2.500000*%
%ADD14R,1.500000X2.500000*%
%ADD15O,1.050000X1.900000*%
%ADD16C,0.500000*%
%ADD17C,0.254000*%
G04 APERTURE END LIST*
D10*
X81662804Y-99939092D03*
D11*
X79281234Y-98564092D03*
X81662804Y-97189092D03*
X84044374Y-98564092D03*
X84044374Y-101314092D03*
X81662804Y-102689092D03*
X79281234Y-101314092D03*
D10*
X118337168Y-99939092D03*
D11*
X115955598Y-98564092D03*
X118337168Y-97189092D03*
X120718738Y-98564092D03*
X120718738Y-101314092D03*
X118337168Y-102689092D03*
X115955598Y-101314092D03*
D12*
X103000000Y-94050000D03*
X111200000Y-94050000D03*
D13*
X105200000Y-94050000D03*
X107100000Y-94050000D03*
D14*
X109000000Y-94050000D03*
D15*
X88575000Y-93200000D03*
X94325000Y-93200000D03*
D16*
X81662804Y-99939092D02*
X85139092Y-99939092D01*
X81662804Y-99939092D02*
X78260908Y-99939092D01*
X118337168Y-99939092D02*
X114660908Y-99939092D01*
X118337168Y-99939092D02*
X121939092Y-99939092D01*
D17*
G36*
X87498115Y-92328940D02*
G01*
X87431785Y-92547600D01*
X87415000Y-92718021D01*
X87415000Y-93681978D01*
X87431785Y-93852399D01*
X87498115Y-94071059D01*
X87605829Y-94272578D01*
X87750788Y-94449212D01*
X87927421Y-94594171D01*
X88128940Y-94701885D01*
X88347600Y-94768215D01*
X88575000Y-94790612D01*
X88802399Y-94768215D01*
X89021059Y-94701885D01*
X89222578Y-94594171D01*
X89399212Y-94449212D01*
X89544171Y-94272579D01*
X89651885Y-94071060D01*
X89718215Y-93852400D01*
X89735000Y-93681979D01*
X89735000Y-92718022D01*
X89718215Y-92547600D01*
X89651885Y-92328940D01*
X89629083Y-92286281D01*
X93270917Y-92286281D01*
X93248115Y-92328941D01*
X93181785Y-92547601D01*
X93165000Y-92718022D01*
X93165000Y-93681979D01*
X93181785Y-93852400D01*
X93248115Y-94071060D01*
X93355830Y-94272579D01*
X93500789Y-94449212D01*
X93677422Y-94594171D01*
X93878941Y-94701885D01*
X94097601Y-94768215D01*
X94325000Y-94790612D01*
X94552400Y-94768215D01*
X94771060Y-94701885D01*
X94972579Y-94594171D01*
X95149212Y-94449212D01*
X95294171Y-94272579D01*
X95401885Y-94071060D01*
X95468215Y-93852400D01*
X95485000Y-93681978D01*
X95485000Y-92718021D01*
X95468215Y-92547600D01*
X95401885Y-92328940D01*
X95379083Y-92286281D01*
X101669536Y-92286281D01*
X101550422Y-92431422D01*
X101389315Y-92732832D01*
X101290105Y-93059881D01*
X101265000Y-93314775D01*
X101265000Y-94785224D01*
X101290105Y-95040118D01*
X101389314Y-95367167D01*
X101550421Y-95668577D01*
X101767234Y-95932766D01*
X102031422Y-96149579D01*
X102332832Y-96310686D01*
X102659881Y-96409895D01*
X103000000Y-96443394D01*
X103340118Y-96409895D01*
X103667167Y-96310686D01*
X103968577Y-96149579D01*
X104232766Y-95932766D01*
X104421498Y-95702795D01*
X104426812Y-95707157D01*
X104667419Y-95835764D01*
X104928493Y-95914960D01*
X105200000Y-95941701D01*
X105471506Y-95914960D01*
X105732580Y-95835764D01*
X105973187Y-95707157D01*
X106152281Y-95560178D01*
X106210460Y-95619145D01*
X106436132Y-95772142D01*
X106687316Y-95878173D01*
X106758815Y-95892318D01*
X106973000Y-95769656D01*
X106973000Y-94177000D01*
X106953000Y-94177000D01*
X106953000Y-93923000D01*
X106973000Y-93923000D01*
X106973000Y-93903000D01*
X107227000Y-93903000D01*
X107227000Y-93923000D01*
X107247000Y-93923000D01*
X107247000Y-94177000D01*
X107227000Y-94177000D01*
X107227000Y-95769656D01*
X107441185Y-95892318D01*
X107512684Y-95878173D01*
X107763868Y-95772142D01*
X107797372Y-95749427D01*
X107798815Y-95751185D01*
X107895506Y-95830537D01*
X108005820Y-95889502D01*
X108125518Y-95925812D01*
X108250000Y-95938072D01*
X109750000Y-95938072D01*
X109874482Y-95925812D01*
X109944177Y-95904670D01*
X109967234Y-95932766D01*
X110231422Y-96149579D01*
X110532832Y-96310686D01*
X110859881Y-96409895D01*
X111200000Y-96443394D01*
X111540118Y-96409895D01*
X111867167Y-96310686D01*
X112168577Y-96149579D01*
X112432766Y-95932766D01*
X112649579Y-95668578D01*
X112810686Y-95367168D01*
X112909895Y-95040119D01*
X112935000Y-94785225D01*
X112935000Y-93314775D01*
X112909895Y-93059881D01*
X112810686Y-92732832D01*
X112649579Y-92431422D01*
X112530465Y-92286281D01*
X118314124Y-92286281D01*
X119402010Y-92362354D01*
X120446123Y-92584286D01*
X121449193Y-92949374D01*
X122391691Y-93450509D01*
X123255261Y-94077931D01*
X124023116Y-94819440D01*
X124680300Y-95660596D01*
X125214023Y-96585031D01*
X125613890Y-97574739D01*
X125872129Y-98610477D01*
X125983707Y-99672065D01*
X125946454Y-100738861D01*
X125761094Y-101790086D01*
X125431237Y-102805280D01*
X124963303Y-103764688D01*
X124366397Y-104649638D01*
X123652136Y-105442906D01*
X122834434Y-106129040D01*
X121929188Y-106694699D01*
X120954033Y-107128867D01*
X119927940Y-107423094D01*
X118859439Y-107573262D01*
X118325646Y-107591903D01*
X81685848Y-107591903D01*
X80597961Y-107515830D01*
X79553849Y-107293898D01*
X78550779Y-106928810D01*
X77608290Y-106427680D01*
X76744710Y-105800253D01*
X75976856Y-105058744D01*
X75319672Y-104217588D01*
X74785951Y-103293155D01*
X74386082Y-102303445D01*
X74127843Y-101267706D01*
X74016266Y-100206118D01*
X74053518Y-99139323D01*
X74181605Y-98412908D01*
X77746234Y-98412908D01*
X77746234Y-98715276D01*
X77805223Y-99011835D01*
X77920935Y-99291187D01*
X78088922Y-99542597D01*
X78302729Y-99756404D01*
X78554139Y-99924391D01*
X78589630Y-99939092D01*
X78554139Y-99953793D01*
X78302729Y-100121780D01*
X78088922Y-100335587D01*
X77920935Y-100586997D01*
X77805223Y-100866349D01*
X77746234Y-101162908D01*
X77746234Y-101465276D01*
X77805223Y-101761835D01*
X77920935Y-102041187D01*
X78088922Y-102292597D01*
X78302729Y-102506404D01*
X78554139Y-102674391D01*
X78833491Y-102790103D01*
X79130050Y-102849092D01*
X79432418Y-102849092D01*
X79728977Y-102790103D01*
X80008329Y-102674391D01*
X80127804Y-102594560D01*
X80127804Y-102840276D01*
X80186793Y-103136835D01*
X80302505Y-103416187D01*
X80470492Y-103667597D01*
X80684299Y-103881404D01*
X80935709Y-104049391D01*
X81215061Y-104165103D01*
X81511620Y-104224092D01*
X81813988Y-104224092D01*
X82110547Y-104165103D01*
X82389899Y-104049391D01*
X82641309Y-103881404D01*
X82855116Y-103667597D01*
X83023103Y-103416187D01*
X83138815Y-103136835D01*
X83197804Y-102840276D01*
X83197804Y-102594560D01*
X83317279Y-102674391D01*
X83596631Y-102790103D01*
X83893190Y-102849092D01*
X84195558Y-102849092D01*
X84492117Y-102790103D01*
X84771469Y-102674391D01*
X85022879Y-102506404D01*
X85236686Y-102292597D01*
X85404673Y-102041187D01*
X85520385Y-101761835D01*
X85579374Y-101465276D01*
X85579374Y-101162908D01*
X85520385Y-100866349D01*
X85404673Y-100586997D01*
X85236686Y-100335587D01*
X85022879Y-100121780D01*
X84771469Y-99953793D01*
X84735978Y-99939092D01*
X84771469Y-99924391D01*
X85022879Y-99756404D01*
X85236686Y-99542597D01*
X85404673Y-99291187D01*
X85520385Y-99011835D01*
X85579374Y-98715276D01*
X85579374Y-98412908D01*
X114420598Y-98412908D01*
X114420598Y-98715276D01*
X114479587Y-99011835D01*
X114595299Y-99291187D01*
X114763286Y-99542597D01*
X114977093Y-99756404D01*
X115228503Y-99924391D01*
X115263994Y-99939092D01*
X115228503Y-99953793D01*
X114977093Y-100121780D01*
X114763286Y-100335587D01*
X114595299Y-100586997D01*
X114479587Y-100866349D01*
X114420598Y-101162908D01*
X114420598Y-101465276D01*
X114479587Y-101761835D01*
X114595299Y-102041187D01*
X114763286Y-102292597D01*
X114977093Y-102506404D01*
X115228503Y-102674391D01*
X115507855Y-102790103D01*
X115804414Y-102849092D01*
X116106782Y-102849092D01*
X116403341Y-102790103D01*
X116682693Y-102674391D01*
X116802168Y-102594560D01*
X116802168Y-102840276D01*
X116861157Y-103136835D01*
X116976869Y-103416187D01*
X117144856Y-103667597D01*
X117358663Y-103881404D01*
X117610073Y-104049391D01*
X117889425Y-104165103D01*
X118185984Y-104224092D01*
X118488352Y-104224092D01*
X118784911Y-104165103D01*
X119064263Y-104049391D01*
X119315673Y-103881404D01*
X119529480Y-103667597D01*
X119697467Y-103416187D01*
X119813179Y-103136835D01*
X119872168Y-102840276D01*
X119872168Y-102594560D01*
X119991643Y-102674391D01*
X120270995Y-102790103D01*
X120567554Y-102849092D01*
X120869922Y-102849092D01*
X121166481Y-102790103D01*
X121445833Y-102674391D01*
X121697243Y-102506404D01*
X121911050Y-102292597D01*
X122079037Y-102041187D01*
X122194749Y-101761835D01*
X122253738Y-101465276D01*
X122253738Y-101162908D01*
X122194749Y-100866349D01*
X122079037Y-100586997D01*
X121911050Y-100335587D01*
X121697243Y-100121780D01*
X121445833Y-99953793D01*
X121410342Y-99939092D01*
X121445833Y-99924391D01*
X121697243Y-99756404D01*
X121911050Y-99542597D01*
X122079037Y-99291187D01*
X122194749Y-99011835D01*
X122253738Y-98715276D01*
X122253738Y-98412908D01*
X122194749Y-98116349D01*
X122079037Y-97836997D01*
X121911050Y-97585587D01*
X121697243Y-97371780D01*
X121445833Y-97203793D01*
X121166481Y-97088081D01*
X120869922Y-97029092D01*
X120567554Y-97029092D01*
X120270995Y-97088081D01*
X119991643Y-97203793D01*
X119872168Y-97283624D01*
X119872168Y-97037908D01*
X119813179Y-96741349D01*
X119697467Y-96461997D01*
X119529480Y-96210587D01*
X119315673Y-95996780D01*
X119064263Y-95828793D01*
X118784911Y-95713081D01*
X118488352Y-95654092D01*
X118185984Y-95654092D01*
X117889425Y-95713081D01*
X117610073Y-95828793D01*
X117358663Y-95996780D01*
X117144856Y-96210587D01*
X116976869Y-96461997D01*
X116861157Y-96741349D01*
X116802168Y-97037908D01*
X116802168Y-97283624D01*
X116682693Y-97203793D01*
X116403341Y-97088081D01*
X116106782Y-97029092D01*
X115804414Y-97029092D01*
X115507855Y-97088081D01*
X115228503Y-97203793D01*
X114977093Y-97371780D01*
X114763286Y-97585587D01*
X114595299Y-97836997D01*
X114479587Y-98116349D01*
X114420598Y-98412908D01*
X85579374Y-98412908D01*
X85520385Y-98116349D01*
X85404673Y-97836997D01*
X85236686Y-97585587D01*
X85022879Y-97371780D01*
X84771469Y-97203793D01*
X84492117Y-97088081D01*
X84195558Y-97029092D01*
X83893190Y-97029092D01*
X83596631Y-97088081D01*
X83317279Y-97203793D01*
X83197804Y-97283624D01*
X83197804Y-97037908D01*
X83138815Y-96741349D01*
X83023103Y-96461997D01*
X82855116Y-96210587D01*
X82641309Y-95996780D01*
X82389899Y-95828793D01*
X82110547Y-95713081D01*
X81813988Y-95654092D01*
X81511620Y-95654092D01*
X81215061Y-95713081D01*
X80935709Y-95828793D01*
X80684299Y-95996780D01*
X80470492Y-96210587D01*
X80302505Y-96461997D01*
X80186793Y-96741349D01*
X80127804Y-97037908D01*
X80127804Y-97283624D01*
X80008329Y-97203793D01*
X79728977Y-97088081D01*
X79432418Y-97029092D01*
X79130050Y-97029092D01*
X78833491Y-97088081D01*
X78554139Y-97203793D01*
X78302729Y-97371780D01*
X78088922Y-97585587D01*
X77920935Y-97836997D01*
X77805223Y-98116349D01*
X77746234Y-98412908D01*
X74181605Y-98412908D01*
X74238878Y-98088098D01*
X74568735Y-97072904D01*
X75036669Y-96113493D01*
X75633575Y-95228546D01*
X76347836Y-94435278D01*
X77165539Y-93749144D01*
X78070783Y-93183485D01*
X79045937Y-92749318D01*
X80072032Y-92455090D01*
X81140535Y-92304922D01*
X81674326Y-92286281D01*
X87520917Y-92286281D01*
X87498115Y-92328940D01*
G37*
X87498115Y-92328940D02*
X87431785Y-92547600D01*
X87415000Y-92718021D01*
X87415000Y-93681978D01*
X87431785Y-93852399D01*
X87498115Y-94071059D01*
X87605829Y-94272578D01*
X87750788Y-94449212D01*
X87927421Y-94594171D01*
X88128940Y-94701885D01*
X88347600Y-94768215D01*
X88575000Y-94790612D01*
X88802399Y-94768215D01*
X89021059Y-94701885D01*
X89222578Y-94594171D01*
X89399212Y-94449212D01*
X89544171Y-94272579D01*
X89651885Y-94071060D01*
X89718215Y-93852400D01*
X89735000Y-93681979D01*
X89735000Y-92718022D01*
X89718215Y-92547600D01*
X89651885Y-92328940D01*
X89629083Y-92286281D01*
X93270917Y-92286281D01*
X93248115Y-92328941D01*
X93181785Y-92547601D01*
X93165000Y-92718022D01*
X93165000Y-93681979D01*
X93181785Y-93852400D01*
X93248115Y-94071060D01*
X93355830Y-94272579D01*
X93500789Y-94449212D01*
X93677422Y-94594171D01*
X93878941Y-94701885D01*
X94097601Y-94768215D01*
X94325000Y-94790612D01*
X94552400Y-94768215D01*
X94771060Y-94701885D01*
X94972579Y-94594171D01*
X95149212Y-94449212D01*
X95294171Y-94272579D01*
X95401885Y-94071060D01*
X95468215Y-93852400D01*
X95485000Y-93681978D01*
X95485000Y-92718021D01*
X95468215Y-92547600D01*
X95401885Y-92328940D01*
X95379083Y-92286281D01*
X101669536Y-92286281D01*
X101550422Y-92431422D01*
X101389315Y-92732832D01*
X101290105Y-93059881D01*
X101265000Y-93314775D01*
X101265000Y-94785224D01*
X101290105Y-95040118D01*
X101389314Y-95367167D01*
X101550421Y-95668577D01*
X101767234Y-95932766D01*
X102031422Y-96149579D01*
X102332832Y-96310686D01*
X102659881Y-96409895D01*
X103000000Y-96443394D01*
X103340118Y-96409895D01*
X103667167Y-96310686D01*
X103968577Y-96149579D01*
X104232766Y-95932766D01*
X104421498Y-95702795D01*
X104426812Y-95707157D01*
X104667419Y-95835764D01*
X104928493Y-95914960D01*
X105200000Y-95941701D01*
X105471506Y-95914960D01*
X105732580Y-95835764D01*
X105973187Y-95707157D01*
X106152281Y-95560178D01*
X106210460Y-95619145D01*
X106436132Y-95772142D01*
X106687316Y-95878173D01*
X106758815Y-95892318D01*
X106973000Y-95769656D01*
X106973000Y-94177000D01*
X106953000Y-94177000D01*
X106953000Y-93923000D01*
X106973000Y-93923000D01*
X106973000Y-93903000D01*
X107227000Y-93903000D01*
X107227000Y-93923000D01*
X107247000Y-93923000D01*
X107247000Y-94177000D01*
X107227000Y-94177000D01*
X107227000Y-95769656D01*
X107441185Y-95892318D01*
X107512684Y-95878173D01*
X107763868Y-95772142D01*
X107797372Y-95749427D01*
X107798815Y-95751185D01*
X107895506Y-95830537D01*
X108005820Y-95889502D01*
X108125518Y-95925812D01*
X108250000Y-95938072D01*
X109750000Y-95938072D01*
X109874482Y-95925812D01*
X109944177Y-95904670D01*
X109967234Y-95932766D01*
X110231422Y-96149579D01*
X110532832Y-96310686D01*
X110859881Y-96409895D01*
X111200000Y-96443394D01*
X111540118Y-96409895D01*
X111867167Y-96310686D01*
X112168577Y-96149579D01*
X112432766Y-95932766D01*
X112649579Y-95668578D01*
X112810686Y-95367168D01*
X112909895Y-95040119D01*
X112935000Y-94785225D01*
X112935000Y-93314775D01*
X112909895Y-93059881D01*
X112810686Y-92732832D01*
X112649579Y-92431422D01*
X112530465Y-92286281D01*
X118314124Y-92286281D01*
X119402010Y-92362354D01*
X120446123Y-92584286D01*
X121449193Y-92949374D01*
X122391691Y-93450509D01*
X123255261Y-94077931D01*
X124023116Y-94819440D01*
X124680300Y-95660596D01*
X125214023Y-96585031D01*
X125613890Y-97574739D01*
X125872129Y-98610477D01*
X125983707Y-99672065D01*
X125946454Y-100738861D01*
X125761094Y-101790086D01*
X125431237Y-102805280D01*
X124963303Y-103764688D01*
X124366397Y-104649638D01*
X123652136Y-105442906D01*
X122834434Y-106129040D01*
X121929188Y-106694699D01*
X120954033Y-107128867D01*
X119927940Y-107423094D01*
X118859439Y-107573262D01*
X118325646Y-107591903D01*
X81685848Y-107591903D01*
X80597961Y-107515830D01*
X79553849Y-107293898D01*
X78550779Y-106928810D01*
X77608290Y-106427680D01*
X76744710Y-105800253D01*
X75976856Y-105058744D01*
X75319672Y-104217588D01*
X74785951Y-103293155D01*
X74386082Y-102303445D01*
X74127843Y-101267706D01*
X74016266Y-100206118D01*
X74053518Y-99139323D01*
X74181605Y-98412908D01*
X77746234Y-98412908D01*
X77746234Y-98715276D01*
X77805223Y-99011835D01*
X77920935Y-99291187D01*
X78088922Y-99542597D01*
X78302729Y-99756404D01*
X78554139Y-99924391D01*
X78589630Y-99939092D01*
X78554139Y-99953793D01*
X78302729Y-100121780D01*
X78088922Y-100335587D01*
X77920935Y-100586997D01*
X77805223Y-100866349D01*
X77746234Y-101162908D01*
X77746234Y-101465276D01*
X77805223Y-101761835D01*
X77920935Y-102041187D01*
X78088922Y-102292597D01*
X78302729Y-102506404D01*
X78554139Y-102674391D01*
X78833491Y-102790103D01*
X79130050Y-102849092D01*
X79432418Y-102849092D01*
X79728977Y-102790103D01*
X80008329Y-102674391D01*
X80127804Y-102594560D01*
X80127804Y-102840276D01*
X80186793Y-103136835D01*
X80302505Y-103416187D01*
X80470492Y-103667597D01*
X80684299Y-103881404D01*
X80935709Y-104049391D01*
X81215061Y-104165103D01*
X81511620Y-104224092D01*
X81813988Y-104224092D01*
X82110547Y-104165103D01*
X82389899Y-104049391D01*
X82641309Y-103881404D01*
X82855116Y-103667597D01*
X83023103Y-103416187D01*
X83138815Y-103136835D01*
X83197804Y-102840276D01*
X83197804Y-102594560D01*
X83317279Y-102674391D01*
X83596631Y-102790103D01*
X83893190Y-102849092D01*
X84195558Y-102849092D01*
X84492117Y-102790103D01*
X84771469Y-102674391D01*
X85022879Y-102506404D01*
X85236686Y-102292597D01*
X85404673Y-102041187D01*
X85520385Y-101761835D01*
X85579374Y-101465276D01*
X85579374Y-101162908D01*
X85520385Y-100866349D01*
X85404673Y-100586997D01*
X85236686Y-100335587D01*
X85022879Y-100121780D01*
X84771469Y-99953793D01*
X84735978Y-99939092D01*
X84771469Y-99924391D01*
X85022879Y-99756404D01*
X85236686Y-99542597D01*
X85404673Y-99291187D01*
X85520385Y-99011835D01*
X85579374Y-98715276D01*
X85579374Y-98412908D01*
X114420598Y-98412908D01*
X114420598Y-98715276D01*
X114479587Y-99011835D01*
X114595299Y-99291187D01*
X114763286Y-99542597D01*
X114977093Y-99756404D01*
X115228503Y-99924391D01*
X115263994Y-99939092D01*
X115228503Y-99953793D01*
X114977093Y-100121780D01*
X114763286Y-100335587D01*
X114595299Y-100586997D01*
X114479587Y-100866349D01*
X114420598Y-101162908D01*
X114420598Y-101465276D01*
X114479587Y-101761835D01*
X114595299Y-102041187D01*
X114763286Y-102292597D01*
X114977093Y-102506404D01*
X115228503Y-102674391D01*
X115507855Y-102790103D01*
X115804414Y-102849092D01*
X116106782Y-102849092D01*
X116403341Y-102790103D01*
X116682693Y-102674391D01*
X116802168Y-102594560D01*
X116802168Y-102840276D01*
X116861157Y-103136835D01*
X116976869Y-103416187D01*
X117144856Y-103667597D01*
X117358663Y-103881404D01*
X117610073Y-104049391D01*
X117889425Y-104165103D01*
X118185984Y-104224092D01*
X118488352Y-104224092D01*
X118784911Y-104165103D01*
X119064263Y-104049391D01*
X119315673Y-103881404D01*
X119529480Y-103667597D01*
X119697467Y-103416187D01*
X119813179Y-103136835D01*
X119872168Y-102840276D01*
X119872168Y-102594560D01*
X119991643Y-102674391D01*
X120270995Y-102790103D01*
X120567554Y-102849092D01*
X120869922Y-102849092D01*
X121166481Y-102790103D01*
X121445833Y-102674391D01*
X121697243Y-102506404D01*
X121911050Y-102292597D01*
X122079037Y-102041187D01*
X122194749Y-101761835D01*
X122253738Y-101465276D01*
X122253738Y-101162908D01*
X122194749Y-100866349D01*
X122079037Y-100586997D01*
X121911050Y-100335587D01*
X121697243Y-100121780D01*
X121445833Y-99953793D01*
X121410342Y-99939092D01*
X121445833Y-99924391D01*
X121697243Y-99756404D01*
X121911050Y-99542597D01*
X122079037Y-99291187D01*
X122194749Y-99011835D01*
X122253738Y-98715276D01*
X122253738Y-98412908D01*
X122194749Y-98116349D01*
X122079037Y-97836997D01*
X121911050Y-97585587D01*
X121697243Y-97371780D01*
X121445833Y-97203793D01*
X121166481Y-97088081D01*
X120869922Y-97029092D01*
X120567554Y-97029092D01*
X120270995Y-97088081D01*
X119991643Y-97203793D01*
X119872168Y-97283624D01*
X119872168Y-97037908D01*
X119813179Y-96741349D01*
X119697467Y-96461997D01*
X119529480Y-96210587D01*
X119315673Y-95996780D01*
X119064263Y-95828793D01*
X118784911Y-95713081D01*
X118488352Y-95654092D01*
X118185984Y-95654092D01*
X117889425Y-95713081D01*
X117610073Y-95828793D01*
X117358663Y-95996780D01*
X117144856Y-96210587D01*
X116976869Y-96461997D01*
X116861157Y-96741349D01*
X116802168Y-97037908D01*
X116802168Y-97283624D01*
X116682693Y-97203793D01*
X116403341Y-97088081D01*
X116106782Y-97029092D01*
X115804414Y-97029092D01*
X115507855Y-97088081D01*
X115228503Y-97203793D01*
X114977093Y-97371780D01*
X114763286Y-97585587D01*
X114595299Y-97836997D01*
X114479587Y-98116349D01*
X114420598Y-98412908D01*
X85579374Y-98412908D01*
X85520385Y-98116349D01*
X85404673Y-97836997D01*
X85236686Y-97585587D01*
X85022879Y-97371780D01*
X84771469Y-97203793D01*
X84492117Y-97088081D01*
X84195558Y-97029092D01*
X83893190Y-97029092D01*
X83596631Y-97088081D01*
X83317279Y-97203793D01*
X83197804Y-97283624D01*
X83197804Y-97037908D01*
X83138815Y-96741349D01*
X83023103Y-96461997D01*
X82855116Y-96210587D01*
X82641309Y-95996780D01*
X82389899Y-95828793D01*
X82110547Y-95713081D01*
X81813988Y-95654092D01*
X81511620Y-95654092D01*
X81215061Y-95713081D01*
X80935709Y-95828793D01*
X80684299Y-95996780D01*
X80470492Y-96210587D01*
X80302505Y-96461997D01*
X80186793Y-96741349D01*
X80127804Y-97037908D01*
X80127804Y-97283624D01*
X80008329Y-97203793D01*
X79728977Y-97088081D01*
X79432418Y-97029092D01*
X79130050Y-97029092D01*
X78833491Y-97088081D01*
X78554139Y-97203793D01*
X78302729Y-97371780D01*
X78088922Y-97585587D01*
X77920935Y-97836997D01*
X77805223Y-98116349D01*
X77746234Y-98412908D01*
X74181605Y-98412908D01*
X74238878Y-98088098D01*
X74568735Y-97072904D01*
X75036669Y-96113493D01*
X75633575Y-95228546D01*
X76347836Y-94435278D01*
X77165539Y-93749144D01*
X78070783Y-93183485D01*
X79045937Y-92749318D01*
X80072032Y-92455090D01*
X81140535Y-92304922D01*
X81674326Y-92286281D01*
X87520917Y-92286281D01*
X87498115Y-92328940D01*
G36*
X118530916Y-99924950D02*
G01*
X118516773Y-99939092D01*
X118530916Y-99953235D01*
X118351311Y-100132840D01*
X118337168Y-100118697D01*
X118323026Y-100132840D01*
X118143421Y-99953235D01*
X118157563Y-99939092D01*
X118143421Y-99924950D01*
X118323026Y-99745345D01*
X118337168Y-99759487D01*
X118351311Y-99745345D01*
X118530916Y-99924950D01*
G37*
X118530916Y-99924950D02*
X118516773Y-99939092D01*
X118530916Y-99953235D01*
X118351311Y-100132840D01*
X118337168Y-100118697D01*
X118323026Y-100132840D01*
X118143421Y-99953235D01*
X118157563Y-99939092D01*
X118143421Y-99924950D01*
X118323026Y-99745345D01*
X118337168Y-99759487D01*
X118351311Y-99745345D01*
X118530916Y-99924950D01*
G36*
X81856552Y-99924950D02*
G01*
X81842409Y-99939092D01*
X81856552Y-99953235D01*
X81676947Y-100132840D01*
X81662804Y-100118697D01*
X81648662Y-100132840D01*
X81469057Y-99953235D01*
X81483199Y-99939092D01*
X81469057Y-99924950D01*
X81648662Y-99745345D01*
X81662804Y-99759487D01*
X81676947Y-99745345D01*
X81856552Y-99924950D01*
G37*
X81856552Y-99924950D02*
X81842409Y-99939092D01*
X81856552Y-99953235D01*
X81676947Y-100132840D01*
X81662804Y-100118697D01*
X81648662Y-100132840D01*
X81469057Y-99953235D01*
X81483199Y-99939092D01*
X81469057Y-99924950D01*
X81648662Y-99745345D01*
X81662804Y-99759487D01*
X81676947Y-99745345D01*
X81856552Y-99924950D01*
M02*
