G04 #@! TF.GenerationSoftware,KiCad,Pcbnew,(5.1.5)-3*
G04 #@! TF.CreationDate,2021-02-13T14:20:36+01:00*
G04 #@! TF.ProjectId,Stacked desk light,53746163-6b65-4642-9064-65736b206c69,rev?*
G04 #@! TF.SameCoordinates,Original*
G04 #@! TF.FileFunction,Copper,L2,Bot*
G04 #@! TF.FilePolarity,Positive*
%FSLAX46Y46*%
G04 Gerber Fmt 4.6, Leading zero omitted, Abs format (unit mm)*
G04 Created by KiCad (PCBNEW (5.1.5)-3) date 2021-02-13 14:20:36*
%MOMM*%
%LPD*%
G04 APERTURE LIST*
%ADD10C,2.200000*%
%ADD11C,2.000000*%
%ADD12C,0.100000*%
%ADD13C,0.500000*%
%ADD14C,0.254000*%
G04 APERTURE END LIST*
D10*
X81662804Y-99939092D03*
D11*
X79281234Y-98564092D03*
X81662804Y-97189092D03*
X84044374Y-98564092D03*
G04 #@! TA.AperFunction,ComponentPad*
D12*
G36*
X84538482Y-100416259D02*
G01*
X84582165Y-100422739D01*
X84625002Y-100433469D01*
X84666582Y-100448346D01*
X84706503Y-100467227D01*
X84744381Y-100489931D01*
X84779851Y-100516237D01*
X84812572Y-100545894D01*
X84842229Y-100578615D01*
X84868535Y-100614085D01*
X84891239Y-100651963D01*
X84910120Y-100691884D01*
X84924997Y-100733464D01*
X84935727Y-100776301D01*
X84942207Y-100819984D01*
X84944374Y-100864092D01*
X84944374Y-101764092D01*
X84942207Y-101808200D01*
X84935727Y-101851883D01*
X84924997Y-101894720D01*
X84910120Y-101936300D01*
X84891239Y-101976221D01*
X84868535Y-102014099D01*
X84842229Y-102049569D01*
X84812572Y-102082290D01*
X84779851Y-102111947D01*
X84744381Y-102138253D01*
X84706503Y-102160957D01*
X84666582Y-102179838D01*
X84625002Y-102194715D01*
X84582165Y-102205445D01*
X84538482Y-102211925D01*
X84494374Y-102214092D01*
X83594374Y-102214092D01*
X83550266Y-102211925D01*
X83506583Y-102205445D01*
X83463746Y-102194715D01*
X83422166Y-102179838D01*
X83382245Y-102160957D01*
X83344367Y-102138253D01*
X83308897Y-102111947D01*
X83276176Y-102082290D01*
X83246519Y-102049569D01*
X83220213Y-102014099D01*
X83197509Y-101976221D01*
X83178628Y-101936300D01*
X83163751Y-101894720D01*
X83153021Y-101851883D01*
X83146541Y-101808200D01*
X83144374Y-101764092D01*
X83144374Y-100864092D01*
X83146541Y-100819984D01*
X83153021Y-100776301D01*
X83163751Y-100733464D01*
X83178628Y-100691884D01*
X83197509Y-100651963D01*
X83220213Y-100614085D01*
X83246519Y-100578615D01*
X83276176Y-100545894D01*
X83308897Y-100516237D01*
X83344367Y-100489931D01*
X83382245Y-100467227D01*
X83422166Y-100448346D01*
X83463746Y-100433469D01*
X83506583Y-100422739D01*
X83550266Y-100416259D01*
X83594374Y-100414092D01*
X84494374Y-100414092D01*
X84538482Y-100416259D01*
G37*
G04 #@! TD.AperFunction*
G04 #@! TA.AperFunction,ComponentPad*
G36*
X82156912Y-101791259D02*
G01*
X82200595Y-101797739D01*
X82243432Y-101808469D01*
X82285012Y-101823346D01*
X82324933Y-101842227D01*
X82362811Y-101864931D01*
X82398281Y-101891237D01*
X82431002Y-101920894D01*
X82460659Y-101953615D01*
X82486965Y-101989085D01*
X82509669Y-102026963D01*
X82528550Y-102066884D01*
X82543427Y-102108464D01*
X82554157Y-102151301D01*
X82560637Y-102194984D01*
X82562804Y-102239092D01*
X82562804Y-103139092D01*
X82560637Y-103183200D01*
X82554157Y-103226883D01*
X82543427Y-103269720D01*
X82528550Y-103311300D01*
X82509669Y-103351221D01*
X82486965Y-103389099D01*
X82460659Y-103424569D01*
X82431002Y-103457290D01*
X82398281Y-103486947D01*
X82362811Y-103513253D01*
X82324933Y-103535957D01*
X82285012Y-103554838D01*
X82243432Y-103569715D01*
X82200595Y-103580445D01*
X82156912Y-103586925D01*
X82112804Y-103589092D01*
X81212804Y-103589092D01*
X81168696Y-103586925D01*
X81125013Y-103580445D01*
X81082176Y-103569715D01*
X81040596Y-103554838D01*
X81000675Y-103535957D01*
X80962797Y-103513253D01*
X80927327Y-103486947D01*
X80894606Y-103457290D01*
X80864949Y-103424569D01*
X80838643Y-103389099D01*
X80815939Y-103351221D01*
X80797058Y-103311300D01*
X80782181Y-103269720D01*
X80771451Y-103226883D01*
X80764971Y-103183200D01*
X80762804Y-103139092D01*
X80762804Y-102239092D01*
X80764971Y-102194984D01*
X80771451Y-102151301D01*
X80782181Y-102108464D01*
X80797058Y-102066884D01*
X80815939Y-102026963D01*
X80838643Y-101989085D01*
X80864949Y-101953615D01*
X80894606Y-101920894D01*
X80927327Y-101891237D01*
X80962797Y-101864931D01*
X81000675Y-101842227D01*
X81040596Y-101823346D01*
X81082176Y-101808469D01*
X81125013Y-101797739D01*
X81168696Y-101791259D01*
X81212804Y-101789092D01*
X82112804Y-101789092D01*
X82156912Y-101791259D01*
G37*
G04 #@! TD.AperFunction*
G04 #@! TA.AperFunction,ComponentPad*
G36*
X79775342Y-100416259D02*
G01*
X79819025Y-100422739D01*
X79861862Y-100433469D01*
X79903442Y-100448346D01*
X79943363Y-100467227D01*
X79981241Y-100489931D01*
X80016711Y-100516237D01*
X80049432Y-100545894D01*
X80079089Y-100578615D01*
X80105395Y-100614085D01*
X80128099Y-100651963D01*
X80146980Y-100691884D01*
X80161857Y-100733464D01*
X80172587Y-100776301D01*
X80179067Y-100819984D01*
X80181234Y-100864092D01*
X80181234Y-101764092D01*
X80179067Y-101808200D01*
X80172587Y-101851883D01*
X80161857Y-101894720D01*
X80146980Y-101936300D01*
X80128099Y-101976221D01*
X80105395Y-102014099D01*
X80079089Y-102049569D01*
X80049432Y-102082290D01*
X80016711Y-102111947D01*
X79981241Y-102138253D01*
X79943363Y-102160957D01*
X79903442Y-102179838D01*
X79861862Y-102194715D01*
X79819025Y-102205445D01*
X79775342Y-102211925D01*
X79731234Y-102214092D01*
X78831234Y-102214092D01*
X78787126Y-102211925D01*
X78743443Y-102205445D01*
X78700606Y-102194715D01*
X78659026Y-102179838D01*
X78619105Y-102160957D01*
X78581227Y-102138253D01*
X78545757Y-102111947D01*
X78513036Y-102082290D01*
X78483379Y-102049569D01*
X78457073Y-102014099D01*
X78434369Y-101976221D01*
X78415488Y-101936300D01*
X78400611Y-101894720D01*
X78389881Y-101851883D01*
X78383401Y-101808200D01*
X78381234Y-101764092D01*
X78381234Y-100864092D01*
X78383401Y-100819984D01*
X78389881Y-100776301D01*
X78400611Y-100733464D01*
X78415488Y-100691884D01*
X78434369Y-100651963D01*
X78457073Y-100614085D01*
X78483379Y-100578615D01*
X78513036Y-100545894D01*
X78545757Y-100516237D01*
X78581227Y-100489931D01*
X78619105Y-100467227D01*
X78659026Y-100448346D01*
X78700606Y-100433469D01*
X78743443Y-100422739D01*
X78787126Y-100416259D01*
X78831234Y-100414092D01*
X79731234Y-100414092D01*
X79775342Y-100416259D01*
G37*
G04 #@! TD.AperFunction*
D10*
X118337168Y-99939092D03*
D11*
X115955598Y-98564092D03*
X118337168Y-97189092D03*
X120718738Y-98564092D03*
G04 #@! TA.AperFunction,ComponentPad*
D12*
G36*
X121212846Y-100416259D02*
G01*
X121256529Y-100422739D01*
X121299366Y-100433469D01*
X121340946Y-100448346D01*
X121380867Y-100467227D01*
X121418745Y-100489931D01*
X121454215Y-100516237D01*
X121486936Y-100545894D01*
X121516593Y-100578615D01*
X121542899Y-100614085D01*
X121565603Y-100651963D01*
X121584484Y-100691884D01*
X121599361Y-100733464D01*
X121610091Y-100776301D01*
X121616571Y-100819984D01*
X121618738Y-100864092D01*
X121618738Y-101764092D01*
X121616571Y-101808200D01*
X121610091Y-101851883D01*
X121599361Y-101894720D01*
X121584484Y-101936300D01*
X121565603Y-101976221D01*
X121542899Y-102014099D01*
X121516593Y-102049569D01*
X121486936Y-102082290D01*
X121454215Y-102111947D01*
X121418745Y-102138253D01*
X121380867Y-102160957D01*
X121340946Y-102179838D01*
X121299366Y-102194715D01*
X121256529Y-102205445D01*
X121212846Y-102211925D01*
X121168738Y-102214092D01*
X120268738Y-102214092D01*
X120224630Y-102211925D01*
X120180947Y-102205445D01*
X120138110Y-102194715D01*
X120096530Y-102179838D01*
X120056609Y-102160957D01*
X120018731Y-102138253D01*
X119983261Y-102111947D01*
X119950540Y-102082290D01*
X119920883Y-102049569D01*
X119894577Y-102014099D01*
X119871873Y-101976221D01*
X119852992Y-101936300D01*
X119838115Y-101894720D01*
X119827385Y-101851883D01*
X119820905Y-101808200D01*
X119818738Y-101764092D01*
X119818738Y-100864092D01*
X119820905Y-100819984D01*
X119827385Y-100776301D01*
X119838115Y-100733464D01*
X119852992Y-100691884D01*
X119871873Y-100651963D01*
X119894577Y-100614085D01*
X119920883Y-100578615D01*
X119950540Y-100545894D01*
X119983261Y-100516237D01*
X120018731Y-100489931D01*
X120056609Y-100467227D01*
X120096530Y-100448346D01*
X120138110Y-100433469D01*
X120180947Y-100422739D01*
X120224630Y-100416259D01*
X120268738Y-100414092D01*
X121168738Y-100414092D01*
X121212846Y-100416259D01*
G37*
G04 #@! TD.AperFunction*
G04 #@! TA.AperFunction,ComponentPad*
G36*
X118831276Y-101791259D02*
G01*
X118874959Y-101797739D01*
X118917796Y-101808469D01*
X118959376Y-101823346D01*
X118999297Y-101842227D01*
X119037175Y-101864931D01*
X119072645Y-101891237D01*
X119105366Y-101920894D01*
X119135023Y-101953615D01*
X119161329Y-101989085D01*
X119184033Y-102026963D01*
X119202914Y-102066884D01*
X119217791Y-102108464D01*
X119228521Y-102151301D01*
X119235001Y-102194984D01*
X119237168Y-102239092D01*
X119237168Y-103139092D01*
X119235001Y-103183200D01*
X119228521Y-103226883D01*
X119217791Y-103269720D01*
X119202914Y-103311300D01*
X119184033Y-103351221D01*
X119161329Y-103389099D01*
X119135023Y-103424569D01*
X119105366Y-103457290D01*
X119072645Y-103486947D01*
X119037175Y-103513253D01*
X118999297Y-103535957D01*
X118959376Y-103554838D01*
X118917796Y-103569715D01*
X118874959Y-103580445D01*
X118831276Y-103586925D01*
X118787168Y-103589092D01*
X117887168Y-103589092D01*
X117843060Y-103586925D01*
X117799377Y-103580445D01*
X117756540Y-103569715D01*
X117714960Y-103554838D01*
X117675039Y-103535957D01*
X117637161Y-103513253D01*
X117601691Y-103486947D01*
X117568970Y-103457290D01*
X117539313Y-103424569D01*
X117513007Y-103389099D01*
X117490303Y-103351221D01*
X117471422Y-103311300D01*
X117456545Y-103269720D01*
X117445815Y-103226883D01*
X117439335Y-103183200D01*
X117437168Y-103139092D01*
X117437168Y-102239092D01*
X117439335Y-102194984D01*
X117445815Y-102151301D01*
X117456545Y-102108464D01*
X117471422Y-102066884D01*
X117490303Y-102026963D01*
X117513007Y-101989085D01*
X117539313Y-101953615D01*
X117568970Y-101920894D01*
X117601691Y-101891237D01*
X117637161Y-101864931D01*
X117675039Y-101842227D01*
X117714960Y-101823346D01*
X117756540Y-101808469D01*
X117799377Y-101797739D01*
X117843060Y-101791259D01*
X117887168Y-101789092D01*
X118787168Y-101789092D01*
X118831276Y-101791259D01*
G37*
G04 #@! TD.AperFunction*
G04 #@! TA.AperFunction,ComponentPad*
G36*
X116449706Y-100416259D02*
G01*
X116493389Y-100422739D01*
X116536226Y-100433469D01*
X116577806Y-100448346D01*
X116617727Y-100467227D01*
X116655605Y-100489931D01*
X116691075Y-100516237D01*
X116723796Y-100545894D01*
X116753453Y-100578615D01*
X116779759Y-100614085D01*
X116802463Y-100651963D01*
X116821344Y-100691884D01*
X116836221Y-100733464D01*
X116846951Y-100776301D01*
X116853431Y-100819984D01*
X116855598Y-100864092D01*
X116855598Y-101764092D01*
X116853431Y-101808200D01*
X116846951Y-101851883D01*
X116836221Y-101894720D01*
X116821344Y-101936300D01*
X116802463Y-101976221D01*
X116779759Y-102014099D01*
X116753453Y-102049569D01*
X116723796Y-102082290D01*
X116691075Y-102111947D01*
X116655605Y-102138253D01*
X116617727Y-102160957D01*
X116577806Y-102179838D01*
X116536226Y-102194715D01*
X116493389Y-102205445D01*
X116449706Y-102211925D01*
X116405598Y-102214092D01*
X115505598Y-102214092D01*
X115461490Y-102211925D01*
X115417807Y-102205445D01*
X115374970Y-102194715D01*
X115333390Y-102179838D01*
X115293469Y-102160957D01*
X115255591Y-102138253D01*
X115220121Y-102111947D01*
X115187400Y-102082290D01*
X115157743Y-102049569D01*
X115131437Y-102014099D01*
X115108733Y-101976221D01*
X115089852Y-101936300D01*
X115074975Y-101894720D01*
X115064245Y-101851883D01*
X115057765Y-101808200D01*
X115055598Y-101764092D01*
X115055598Y-100864092D01*
X115057765Y-100819984D01*
X115064245Y-100776301D01*
X115074975Y-100733464D01*
X115089852Y-100691884D01*
X115108733Y-100651963D01*
X115131437Y-100614085D01*
X115157743Y-100578615D01*
X115187400Y-100545894D01*
X115220121Y-100516237D01*
X115255591Y-100489931D01*
X115293469Y-100467227D01*
X115333390Y-100448346D01*
X115374970Y-100433469D01*
X115417807Y-100422739D01*
X115461490Y-100416259D01*
X115505598Y-100414092D01*
X116405598Y-100414092D01*
X116449706Y-100416259D01*
G37*
G04 #@! TD.AperFunction*
D13*
X116987168Y-101339092D02*
X118337168Y-102689092D01*
X115955598Y-101339092D02*
X116987168Y-101339092D01*
X119687168Y-101339092D02*
X118337168Y-102689092D01*
X120718738Y-101339092D02*
X119687168Y-101339092D01*
X80312804Y-101339092D02*
X81662804Y-102689092D01*
X79281234Y-101339092D02*
X80312804Y-101339092D01*
X83012804Y-101339092D02*
X81662804Y-102689092D01*
X84044374Y-101339092D02*
X83012804Y-101339092D01*
D14*
G36*
X119402010Y-92362354D02*
G01*
X120446123Y-92584286D01*
X121449193Y-92949374D01*
X122391691Y-93450509D01*
X123255261Y-94077931D01*
X124023116Y-94819440D01*
X124680300Y-95660596D01*
X125214023Y-96585031D01*
X125613890Y-97574739D01*
X125872129Y-98610477D01*
X125983707Y-99672065D01*
X125946454Y-100738861D01*
X125761094Y-101790086D01*
X125431237Y-102805280D01*
X124963303Y-103764688D01*
X124366397Y-104649638D01*
X123652136Y-105442906D01*
X122834434Y-106129040D01*
X121929188Y-106694699D01*
X120954033Y-107128867D01*
X119927940Y-107423094D01*
X118859439Y-107573262D01*
X118325646Y-107591903D01*
X81685848Y-107591903D01*
X80597961Y-107515830D01*
X79553849Y-107293898D01*
X78550779Y-106928810D01*
X77608290Y-106427680D01*
X76744710Y-105800253D01*
X75976856Y-105058744D01*
X75319672Y-104217588D01*
X74785951Y-103293155D01*
X74386082Y-102303445D01*
X74363804Y-102214092D01*
X77743162Y-102214092D01*
X77755422Y-102338574D01*
X77791732Y-102458272D01*
X77850697Y-102568586D01*
X77930049Y-102665277D01*
X78026740Y-102744629D01*
X78137054Y-102803594D01*
X78256752Y-102839904D01*
X78381234Y-102852164D01*
X78995484Y-102849092D01*
X79154234Y-102690342D01*
X79154234Y-101441092D01*
X77904984Y-101441092D01*
X77746234Y-101599842D01*
X77743162Y-102214092D01*
X74363804Y-102214092D01*
X74127843Y-101267706D01*
X74016266Y-100206118D01*
X74053518Y-99139323D01*
X74183341Y-98403059D01*
X77646234Y-98403059D01*
X77646234Y-98725125D01*
X77709066Y-99041004D01*
X77832316Y-99338555D01*
X78011247Y-99606344D01*
X78207978Y-99803075D01*
X78137054Y-99824590D01*
X78026740Y-99883555D01*
X77930049Y-99962907D01*
X77850697Y-100059598D01*
X77791732Y-100169912D01*
X77755422Y-100289610D01*
X77743162Y-100414092D01*
X77746234Y-101028342D01*
X77904984Y-101187092D01*
X79154234Y-101187092D01*
X79154234Y-101167092D01*
X79408234Y-101167092D01*
X79408234Y-101187092D01*
X79428234Y-101187092D01*
X79428234Y-101441092D01*
X79408234Y-101441092D01*
X79408234Y-102690342D01*
X79566984Y-102849092D01*
X80181234Y-102852164D01*
X80258047Y-102844599D01*
X80127804Y-102974842D01*
X80124732Y-103589092D01*
X80136992Y-103713574D01*
X80173302Y-103833272D01*
X80232267Y-103943586D01*
X80311619Y-104040277D01*
X80408310Y-104119629D01*
X80518624Y-104178594D01*
X80638322Y-104214904D01*
X80762804Y-104227164D01*
X81377054Y-104224092D01*
X81535804Y-104065342D01*
X81535804Y-102816092D01*
X81515804Y-102816092D01*
X81515804Y-102562092D01*
X81535804Y-102562092D01*
X81535804Y-102542092D01*
X81789804Y-102542092D01*
X81789804Y-102562092D01*
X81809804Y-102562092D01*
X81809804Y-102816092D01*
X81789804Y-102816092D01*
X81789804Y-104065342D01*
X81948554Y-104224092D01*
X82562804Y-104227164D01*
X82687286Y-104214904D01*
X82806984Y-104178594D01*
X82917298Y-104119629D01*
X83013989Y-104040277D01*
X83093341Y-103943586D01*
X83152306Y-103833272D01*
X83188616Y-103713574D01*
X83200876Y-103589092D01*
X83197804Y-102974842D01*
X83067561Y-102844599D01*
X83144374Y-102852164D01*
X83758624Y-102849092D01*
X83917374Y-102690342D01*
X83917374Y-101441092D01*
X84171374Y-101441092D01*
X84171374Y-102690342D01*
X84330124Y-102849092D01*
X84944374Y-102852164D01*
X85068856Y-102839904D01*
X85188554Y-102803594D01*
X85298868Y-102744629D01*
X85395559Y-102665277D01*
X85474911Y-102568586D01*
X85533876Y-102458272D01*
X85570186Y-102338574D01*
X85582446Y-102214092D01*
X114417526Y-102214092D01*
X114429786Y-102338574D01*
X114466096Y-102458272D01*
X114525061Y-102568586D01*
X114604413Y-102665277D01*
X114701104Y-102744629D01*
X114811418Y-102803594D01*
X114931116Y-102839904D01*
X115055598Y-102852164D01*
X115669848Y-102849092D01*
X115828598Y-102690342D01*
X115828598Y-101441092D01*
X114579348Y-101441092D01*
X114420598Y-101599842D01*
X114417526Y-102214092D01*
X85582446Y-102214092D01*
X85579374Y-101599842D01*
X85420624Y-101441092D01*
X84171374Y-101441092D01*
X83917374Y-101441092D01*
X83897374Y-101441092D01*
X83897374Y-101187092D01*
X83917374Y-101187092D01*
X83917374Y-101167092D01*
X84171374Y-101167092D01*
X84171374Y-101187092D01*
X85420624Y-101187092D01*
X85579374Y-101028342D01*
X85582446Y-100414092D01*
X85570186Y-100289610D01*
X85533876Y-100169912D01*
X85474911Y-100059598D01*
X85395559Y-99962907D01*
X85298868Y-99883555D01*
X85188554Y-99824590D01*
X85117630Y-99803075D01*
X85314361Y-99606344D01*
X85493292Y-99338555D01*
X85616542Y-99041004D01*
X85679374Y-98725125D01*
X85679374Y-98403059D01*
X114320598Y-98403059D01*
X114320598Y-98725125D01*
X114383430Y-99041004D01*
X114506680Y-99338555D01*
X114685611Y-99606344D01*
X114882342Y-99803075D01*
X114811418Y-99824590D01*
X114701104Y-99883555D01*
X114604413Y-99962907D01*
X114525061Y-100059598D01*
X114466096Y-100169912D01*
X114429786Y-100289610D01*
X114417526Y-100414092D01*
X114420598Y-101028342D01*
X114579348Y-101187092D01*
X115828598Y-101187092D01*
X115828598Y-101167092D01*
X116082598Y-101167092D01*
X116082598Y-101187092D01*
X116102598Y-101187092D01*
X116102598Y-101441092D01*
X116082598Y-101441092D01*
X116082598Y-102690342D01*
X116241348Y-102849092D01*
X116855598Y-102852164D01*
X116932411Y-102844599D01*
X116802168Y-102974842D01*
X116799096Y-103589092D01*
X116811356Y-103713574D01*
X116847666Y-103833272D01*
X116906631Y-103943586D01*
X116985983Y-104040277D01*
X117082674Y-104119629D01*
X117192988Y-104178594D01*
X117312686Y-104214904D01*
X117437168Y-104227164D01*
X118051418Y-104224092D01*
X118210168Y-104065342D01*
X118210168Y-102816092D01*
X118190168Y-102816092D01*
X118190168Y-102562092D01*
X118210168Y-102562092D01*
X118210168Y-102542092D01*
X118464168Y-102542092D01*
X118464168Y-102562092D01*
X118484168Y-102562092D01*
X118484168Y-102816092D01*
X118464168Y-102816092D01*
X118464168Y-104065342D01*
X118622918Y-104224092D01*
X119237168Y-104227164D01*
X119361650Y-104214904D01*
X119481348Y-104178594D01*
X119591662Y-104119629D01*
X119688353Y-104040277D01*
X119767705Y-103943586D01*
X119826670Y-103833272D01*
X119862980Y-103713574D01*
X119875240Y-103589092D01*
X119872168Y-102974842D01*
X119741925Y-102844599D01*
X119818738Y-102852164D01*
X120432988Y-102849092D01*
X120591738Y-102690342D01*
X120591738Y-101441092D01*
X120845738Y-101441092D01*
X120845738Y-102690342D01*
X121004488Y-102849092D01*
X121618738Y-102852164D01*
X121743220Y-102839904D01*
X121862918Y-102803594D01*
X121973232Y-102744629D01*
X122069923Y-102665277D01*
X122149275Y-102568586D01*
X122208240Y-102458272D01*
X122244550Y-102338574D01*
X122256810Y-102214092D01*
X122253738Y-101599842D01*
X122094988Y-101441092D01*
X120845738Y-101441092D01*
X120591738Y-101441092D01*
X120571738Y-101441092D01*
X120571738Y-101187092D01*
X120591738Y-101187092D01*
X120591738Y-101167092D01*
X120845738Y-101167092D01*
X120845738Y-101187092D01*
X122094988Y-101187092D01*
X122253738Y-101028342D01*
X122256810Y-100414092D01*
X122244550Y-100289610D01*
X122208240Y-100169912D01*
X122149275Y-100059598D01*
X122069923Y-99962907D01*
X121973232Y-99883555D01*
X121862918Y-99824590D01*
X121791994Y-99803075D01*
X121988725Y-99606344D01*
X122167656Y-99338555D01*
X122290906Y-99041004D01*
X122353738Y-98725125D01*
X122353738Y-98403059D01*
X122290906Y-98087180D01*
X122167656Y-97789629D01*
X121988725Y-97521840D01*
X121760990Y-97294105D01*
X121493201Y-97115174D01*
X121195650Y-96991924D01*
X120879771Y-96929092D01*
X120557705Y-96929092D01*
X120241826Y-96991924D01*
X119972168Y-97103620D01*
X119972168Y-97028059D01*
X119909336Y-96712180D01*
X119786086Y-96414629D01*
X119607155Y-96146840D01*
X119379420Y-95919105D01*
X119111631Y-95740174D01*
X118814080Y-95616924D01*
X118498201Y-95554092D01*
X118176135Y-95554092D01*
X117860256Y-95616924D01*
X117562705Y-95740174D01*
X117294916Y-95919105D01*
X117067181Y-96146840D01*
X116888250Y-96414629D01*
X116765000Y-96712180D01*
X116702168Y-97028059D01*
X116702168Y-97103620D01*
X116432510Y-96991924D01*
X116116631Y-96929092D01*
X115794565Y-96929092D01*
X115478686Y-96991924D01*
X115181135Y-97115174D01*
X114913346Y-97294105D01*
X114685611Y-97521840D01*
X114506680Y-97789629D01*
X114383430Y-98087180D01*
X114320598Y-98403059D01*
X85679374Y-98403059D01*
X85616542Y-98087180D01*
X85493292Y-97789629D01*
X85314361Y-97521840D01*
X85086626Y-97294105D01*
X84818837Y-97115174D01*
X84521286Y-96991924D01*
X84205407Y-96929092D01*
X83883341Y-96929092D01*
X83567462Y-96991924D01*
X83297804Y-97103620D01*
X83297804Y-97028059D01*
X83234972Y-96712180D01*
X83111722Y-96414629D01*
X82932791Y-96146840D01*
X82705056Y-95919105D01*
X82437267Y-95740174D01*
X82139716Y-95616924D01*
X81823837Y-95554092D01*
X81501771Y-95554092D01*
X81185892Y-95616924D01*
X80888341Y-95740174D01*
X80620552Y-95919105D01*
X80392817Y-96146840D01*
X80213886Y-96414629D01*
X80090636Y-96712180D01*
X80027804Y-97028059D01*
X80027804Y-97103620D01*
X79758146Y-96991924D01*
X79442267Y-96929092D01*
X79120201Y-96929092D01*
X78804322Y-96991924D01*
X78506771Y-97115174D01*
X78238982Y-97294105D01*
X78011247Y-97521840D01*
X77832316Y-97789629D01*
X77709066Y-98087180D01*
X77646234Y-98403059D01*
X74183341Y-98403059D01*
X74238878Y-98088098D01*
X74568735Y-97072904D01*
X75036669Y-96113493D01*
X75633575Y-95228546D01*
X76347836Y-94435278D01*
X77165539Y-93749144D01*
X78070783Y-93183485D01*
X79045937Y-92749318D01*
X80072032Y-92455090D01*
X81140535Y-92304922D01*
X81674326Y-92286281D01*
X118314124Y-92286281D01*
X119402010Y-92362354D01*
G37*
X119402010Y-92362354D02*
X120446123Y-92584286D01*
X121449193Y-92949374D01*
X122391691Y-93450509D01*
X123255261Y-94077931D01*
X124023116Y-94819440D01*
X124680300Y-95660596D01*
X125214023Y-96585031D01*
X125613890Y-97574739D01*
X125872129Y-98610477D01*
X125983707Y-99672065D01*
X125946454Y-100738861D01*
X125761094Y-101790086D01*
X125431237Y-102805280D01*
X124963303Y-103764688D01*
X124366397Y-104649638D01*
X123652136Y-105442906D01*
X122834434Y-106129040D01*
X121929188Y-106694699D01*
X120954033Y-107128867D01*
X119927940Y-107423094D01*
X118859439Y-107573262D01*
X118325646Y-107591903D01*
X81685848Y-107591903D01*
X80597961Y-107515830D01*
X79553849Y-107293898D01*
X78550779Y-106928810D01*
X77608290Y-106427680D01*
X76744710Y-105800253D01*
X75976856Y-105058744D01*
X75319672Y-104217588D01*
X74785951Y-103293155D01*
X74386082Y-102303445D01*
X74363804Y-102214092D01*
X77743162Y-102214092D01*
X77755422Y-102338574D01*
X77791732Y-102458272D01*
X77850697Y-102568586D01*
X77930049Y-102665277D01*
X78026740Y-102744629D01*
X78137054Y-102803594D01*
X78256752Y-102839904D01*
X78381234Y-102852164D01*
X78995484Y-102849092D01*
X79154234Y-102690342D01*
X79154234Y-101441092D01*
X77904984Y-101441092D01*
X77746234Y-101599842D01*
X77743162Y-102214092D01*
X74363804Y-102214092D01*
X74127843Y-101267706D01*
X74016266Y-100206118D01*
X74053518Y-99139323D01*
X74183341Y-98403059D01*
X77646234Y-98403059D01*
X77646234Y-98725125D01*
X77709066Y-99041004D01*
X77832316Y-99338555D01*
X78011247Y-99606344D01*
X78207978Y-99803075D01*
X78137054Y-99824590D01*
X78026740Y-99883555D01*
X77930049Y-99962907D01*
X77850697Y-100059598D01*
X77791732Y-100169912D01*
X77755422Y-100289610D01*
X77743162Y-100414092D01*
X77746234Y-101028342D01*
X77904984Y-101187092D01*
X79154234Y-101187092D01*
X79154234Y-101167092D01*
X79408234Y-101167092D01*
X79408234Y-101187092D01*
X79428234Y-101187092D01*
X79428234Y-101441092D01*
X79408234Y-101441092D01*
X79408234Y-102690342D01*
X79566984Y-102849092D01*
X80181234Y-102852164D01*
X80258047Y-102844599D01*
X80127804Y-102974842D01*
X80124732Y-103589092D01*
X80136992Y-103713574D01*
X80173302Y-103833272D01*
X80232267Y-103943586D01*
X80311619Y-104040277D01*
X80408310Y-104119629D01*
X80518624Y-104178594D01*
X80638322Y-104214904D01*
X80762804Y-104227164D01*
X81377054Y-104224092D01*
X81535804Y-104065342D01*
X81535804Y-102816092D01*
X81515804Y-102816092D01*
X81515804Y-102562092D01*
X81535804Y-102562092D01*
X81535804Y-102542092D01*
X81789804Y-102542092D01*
X81789804Y-102562092D01*
X81809804Y-102562092D01*
X81809804Y-102816092D01*
X81789804Y-102816092D01*
X81789804Y-104065342D01*
X81948554Y-104224092D01*
X82562804Y-104227164D01*
X82687286Y-104214904D01*
X82806984Y-104178594D01*
X82917298Y-104119629D01*
X83013989Y-104040277D01*
X83093341Y-103943586D01*
X83152306Y-103833272D01*
X83188616Y-103713574D01*
X83200876Y-103589092D01*
X83197804Y-102974842D01*
X83067561Y-102844599D01*
X83144374Y-102852164D01*
X83758624Y-102849092D01*
X83917374Y-102690342D01*
X83917374Y-101441092D01*
X84171374Y-101441092D01*
X84171374Y-102690342D01*
X84330124Y-102849092D01*
X84944374Y-102852164D01*
X85068856Y-102839904D01*
X85188554Y-102803594D01*
X85298868Y-102744629D01*
X85395559Y-102665277D01*
X85474911Y-102568586D01*
X85533876Y-102458272D01*
X85570186Y-102338574D01*
X85582446Y-102214092D01*
X114417526Y-102214092D01*
X114429786Y-102338574D01*
X114466096Y-102458272D01*
X114525061Y-102568586D01*
X114604413Y-102665277D01*
X114701104Y-102744629D01*
X114811418Y-102803594D01*
X114931116Y-102839904D01*
X115055598Y-102852164D01*
X115669848Y-102849092D01*
X115828598Y-102690342D01*
X115828598Y-101441092D01*
X114579348Y-101441092D01*
X114420598Y-101599842D01*
X114417526Y-102214092D01*
X85582446Y-102214092D01*
X85579374Y-101599842D01*
X85420624Y-101441092D01*
X84171374Y-101441092D01*
X83917374Y-101441092D01*
X83897374Y-101441092D01*
X83897374Y-101187092D01*
X83917374Y-101187092D01*
X83917374Y-101167092D01*
X84171374Y-101167092D01*
X84171374Y-101187092D01*
X85420624Y-101187092D01*
X85579374Y-101028342D01*
X85582446Y-100414092D01*
X85570186Y-100289610D01*
X85533876Y-100169912D01*
X85474911Y-100059598D01*
X85395559Y-99962907D01*
X85298868Y-99883555D01*
X85188554Y-99824590D01*
X85117630Y-99803075D01*
X85314361Y-99606344D01*
X85493292Y-99338555D01*
X85616542Y-99041004D01*
X85679374Y-98725125D01*
X85679374Y-98403059D01*
X114320598Y-98403059D01*
X114320598Y-98725125D01*
X114383430Y-99041004D01*
X114506680Y-99338555D01*
X114685611Y-99606344D01*
X114882342Y-99803075D01*
X114811418Y-99824590D01*
X114701104Y-99883555D01*
X114604413Y-99962907D01*
X114525061Y-100059598D01*
X114466096Y-100169912D01*
X114429786Y-100289610D01*
X114417526Y-100414092D01*
X114420598Y-101028342D01*
X114579348Y-101187092D01*
X115828598Y-101187092D01*
X115828598Y-101167092D01*
X116082598Y-101167092D01*
X116082598Y-101187092D01*
X116102598Y-101187092D01*
X116102598Y-101441092D01*
X116082598Y-101441092D01*
X116082598Y-102690342D01*
X116241348Y-102849092D01*
X116855598Y-102852164D01*
X116932411Y-102844599D01*
X116802168Y-102974842D01*
X116799096Y-103589092D01*
X116811356Y-103713574D01*
X116847666Y-103833272D01*
X116906631Y-103943586D01*
X116985983Y-104040277D01*
X117082674Y-104119629D01*
X117192988Y-104178594D01*
X117312686Y-104214904D01*
X117437168Y-104227164D01*
X118051418Y-104224092D01*
X118210168Y-104065342D01*
X118210168Y-102816092D01*
X118190168Y-102816092D01*
X118190168Y-102562092D01*
X118210168Y-102562092D01*
X118210168Y-102542092D01*
X118464168Y-102542092D01*
X118464168Y-102562092D01*
X118484168Y-102562092D01*
X118484168Y-102816092D01*
X118464168Y-102816092D01*
X118464168Y-104065342D01*
X118622918Y-104224092D01*
X119237168Y-104227164D01*
X119361650Y-104214904D01*
X119481348Y-104178594D01*
X119591662Y-104119629D01*
X119688353Y-104040277D01*
X119767705Y-103943586D01*
X119826670Y-103833272D01*
X119862980Y-103713574D01*
X119875240Y-103589092D01*
X119872168Y-102974842D01*
X119741925Y-102844599D01*
X119818738Y-102852164D01*
X120432988Y-102849092D01*
X120591738Y-102690342D01*
X120591738Y-101441092D01*
X120845738Y-101441092D01*
X120845738Y-102690342D01*
X121004488Y-102849092D01*
X121618738Y-102852164D01*
X121743220Y-102839904D01*
X121862918Y-102803594D01*
X121973232Y-102744629D01*
X122069923Y-102665277D01*
X122149275Y-102568586D01*
X122208240Y-102458272D01*
X122244550Y-102338574D01*
X122256810Y-102214092D01*
X122253738Y-101599842D01*
X122094988Y-101441092D01*
X120845738Y-101441092D01*
X120591738Y-101441092D01*
X120571738Y-101441092D01*
X120571738Y-101187092D01*
X120591738Y-101187092D01*
X120591738Y-101167092D01*
X120845738Y-101167092D01*
X120845738Y-101187092D01*
X122094988Y-101187092D01*
X122253738Y-101028342D01*
X122256810Y-100414092D01*
X122244550Y-100289610D01*
X122208240Y-100169912D01*
X122149275Y-100059598D01*
X122069923Y-99962907D01*
X121973232Y-99883555D01*
X121862918Y-99824590D01*
X121791994Y-99803075D01*
X121988725Y-99606344D01*
X122167656Y-99338555D01*
X122290906Y-99041004D01*
X122353738Y-98725125D01*
X122353738Y-98403059D01*
X122290906Y-98087180D01*
X122167656Y-97789629D01*
X121988725Y-97521840D01*
X121760990Y-97294105D01*
X121493201Y-97115174D01*
X121195650Y-96991924D01*
X120879771Y-96929092D01*
X120557705Y-96929092D01*
X120241826Y-96991924D01*
X119972168Y-97103620D01*
X119972168Y-97028059D01*
X119909336Y-96712180D01*
X119786086Y-96414629D01*
X119607155Y-96146840D01*
X119379420Y-95919105D01*
X119111631Y-95740174D01*
X118814080Y-95616924D01*
X118498201Y-95554092D01*
X118176135Y-95554092D01*
X117860256Y-95616924D01*
X117562705Y-95740174D01*
X117294916Y-95919105D01*
X117067181Y-96146840D01*
X116888250Y-96414629D01*
X116765000Y-96712180D01*
X116702168Y-97028059D01*
X116702168Y-97103620D01*
X116432510Y-96991924D01*
X116116631Y-96929092D01*
X115794565Y-96929092D01*
X115478686Y-96991924D01*
X115181135Y-97115174D01*
X114913346Y-97294105D01*
X114685611Y-97521840D01*
X114506680Y-97789629D01*
X114383430Y-98087180D01*
X114320598Y-98403059D01*
X85679374Y-98403059D01*
X85616542Y-98087180D01*
X85493292Y-97789629D01*
X85314361Y-97521840D01*
X85086626Y-97294105D01*
X84818837Y-97115174D01*
X84521286Y-96991924D01*
X84205407Y-96929092D01*
X83883341Y-96929092D01*
X83567462Y-96991924D01*
X83297804Y-97103620D01*
X83297804Y-97028059D01*
X83234972Y-96712180D01*
X83111722Y-96414629D01*
X82932791Y-96146840D01*
X82705056Y-95919105D01*
X82437267Y-95740174D01*
X82139716Y-95616924D01*
X81823837Y-95554092D01*
X81501771Y-95554092D01*
X81185892Y-95616924D01*
X80888341Y-95740174D01*
X80620552Y-95919105D01*
X80392817Y-96146840D01*
X80213886Y-96414629D01*
X80090636Y-96712180D01*
X80027804Y-97028059D01*
X80027804Y-97103620D01*
X79758146Y-96991924D01*
X79442267Y-96929092D01*
X79120201Y-96929092D01*
X78804322Y-96991924D01*
X78506771Y-97115174D01*
X78238982Y-97294105D01*
X78011247Y-97521840D01*
X77832316Y-97789629D01*
X77709066Y-98087180D01*
X77646234Y-98403059D01*
X74183341Y-98403059D01*
X74238878Y-98088098D01*
X74568735Y-97072904D01*
X75036669Y-96113493D01*
X75633575Y-95228546D01*
X76347836Y-94435278D01*
X77165539Y-93749144D01*
X78070783Y-93183485D01*
X79045937Y-92749318D01*
X80072032Y-92455090D01*
X81140535Y-92304922D01*
X81674326Y-92286281D01*
X118314124Y-92286281D01*
X119402010Y-92362354D01*
M02*
