G04 #@! TF.GenerationSoftware,KiCad,Pcbnew,(5.1.5)-3*
G04 #@! TF.CreationDate,2021-02-13T14:20:36+01:00*
G04 #@! TF.ProjectId,Stacked desk light,53746163-6b65-4642-9064-65736b206c69,rev?*
G04 #@! TF.SameCoordinates,Original*
G04 #@! TF.FileFunction,Copper,L1,Top*
G04 #@! TF.FilePolarity,Positive*
%FSLAX46Y46*%
G04 Gerber Fmt 4.6, Leading zero omitted, Abs format (unit mm)*
G04 Created by KiCad (PCBNEW (5.1.5)-3) date 2021-02-13 14:20:36*
%MOMM*%
%LPD*%
G04 APERTURE LIST*
%ADD10C,2.200000*%
%ADD11C,2.000000*%
%ADD12C,0.100000*%
%ADD13C,0.500000*%
%ADD14C,1.000000*%
%ADD15C,0.254000*%
G04 APERTURE END LIST*
D10*
X81662804Y-99939092D03*
D11*
X79281234Y-98564092D03*
X81662804Y-97189092D03*
X84044374Y-98564092D03*
G04 #@! TA.AperFunction,ComponentPad*
D12*
G36*
X84538482Y-100416259D02*
G01*
X84582165Y-100422739D01*
X84625002Y-100433469D01*
X84666582Y-100448346D01*
X84706503Y-100467227D01*
X84744381Y-100489931D01*
X84779851Y-100516237D01*
X84812572Y-100545894D01*
X84842229Y-100578615D01*
X84868535Y-100614085D01*
X84891239Y-100651963D01*
X84910120Y-100691884D01*
X84924997Y-100733464D01*
X84935727Y-100776301D01*
X84942207Y-100819984D01*
X84944374Y-100864092D01*
X84944374Y-101764092D01*
X84942207Y-101808200D01*
X84935727Y-101851883D01*
X84924997Y-101894720D01*
X84910120Y-101936300D01*
X84891239Y-101976221D01*
X84868535Y-102014099D01*
X84842229Y-102049569D01*
X84812572Y-102082290D01*
X84779851Y-102111947D01*
X84744381Y-102138253D01*
X84706503Y-102160957D01*
X84666582Y-102179838D01*
X84625002Y-102194715D01*
X84582165Y-102205445D01*
X84538482Y-102211925D01*
X84494374Y-102214092D01*
X83594374Y-102214092D01*
X83550266Y-102211925D01*
X83506583Y-102205445D01*
X83463746Y-102194715D01*
X83422166Y-102179838D01*
X83382245Y-102160957D01*
X83344367Y-102138253D01*
X83308897Y-102111947D01*
X83276176Y-102082290D01*
X83246519Y-102049569D01*
X83220213Y-102014099D01*
X83197509Y-101976221D01*
X83178628Y-101936300D01*
X83163751Y-101894720D01*
X83153021Y-101851883D01*
X83146541Y-101808200D01*
X83144374Y-101764092D01*
X83144374Y-100864092D01*
X83146541Y-100819984D01*
X83153021Y-100776301D01*
X83163751Y-100733464D01*
X83178628Y-100691884D01*
X83197509Y-100651963D01*
X83220213Y-100614085D01*
X83246519Y-100578615D01*
X83276176Y-100545894D01*
X83308897Y-100516237D01*
X83344367Y-100489931D01*
X83382245Y-100467227D01*
X83422166Y-100448346D01*
X83463746Y-100433469D01*
X83506583Y-100422739D01*
X83550266Y-100416259D01*
X83594374Y-100414092D01*
X84494374Y-100414092D01*
X84538482Y-100416259D01*
G37*
G04 #@! TD.AperFunction*
G04 #@! TA.AperFunction,ComponentPad*
G36*
X82156912Y-101791259D02*
G01*
X82200595Y-101797739D01*
X82243432Y-101808469D01*
X82285012Y-101823346D01*
X82324933Y-101842227D01*
X82362811Y-101864931D01*
X82398281Y-101891237D01*
X82431002Y-101920894D01*
X82460659Y-101953615D01*
X82486965Y-101989085D01*
X82509669Y-102026963D01*
X82528550Y-102066884D01*
X82543427Y-102108464D01*
X82554157Y-102151301D01*
X82560637Y-102194984D01*
X82562804Y-102239092D01*
X82562804Y-103139092D01*
X82560637Y-103183200D01*
X82554157Y-103226883D01*
X82543427Y-103269720D01*
X82528550Y-103311300D01*
X82509669Y-103351221D01*
X82486965Y-103389099D01*
X82460659Y-103424569D01*
X82431002Y-103457290D01*
X82398281Y-103486947D01*
X82362811Y-103513253D01*
X82324933Y-103535957D01*
X82285012Y-103554838D01*
X82243432Y-103569715D01*
X82200595Y-103580445D01*
X82156912Y-103586925D01*
X82112804Y-103589092D01*
X81212804Y-103589092D01*
X81168696Y-103586925D01*
X81125013Y-103580445D01*
X81082176Y-103569715D01*
X81040596Y-103554838D01*
X81000675Y-103535957D01*
X80962797Y-103513253D01*
X80927327Y-103486947D01*
X80894606Y-103457290D01*
X80864949Y-103424569D01*
X80838643Y-103389099D01*
X80815939Y-103351221D01*
X80797058Y-103311300D01*
X80782181Y-103269720D01*
X80771451Y-103226883D01*
X80764971Y-103183200D01*
X80762804Y-103139092D01*
X80762804Y-102239092D01*
X80764971Y-102194984D01*
X80771451Y-102151301D01*
X80782181Y-102108464D01*
X80797058Y-102066884D01*
X80815939Y-102026963D01*
X80838643Y-101989085D01*
X80864949Y-101953615D01*
X80894606Y-101920894D01*
X80927327Y-101891237D01*
X80962797Y-101864931D01*
X81000675Y-101842227D01*
X81040596Y-101823346D01*
X81082176Y-101808469D01*
X81125013Y-101797739D01*
X81168696Y-101791259D01*
X81212804Y-101789092D01*
X82112804Y-101789092D01*
X82156912Y-101791259D01*
G37*
G04 #@! TD.AperFunction*
G04 #@! TA.AperFunction,ComponentPad*
G36*
X79775342Y-100416259D02*
G01*
X79819025Y-100422739D01*
X79861862Y-100433469D01*
X79903442Y-100448346D01*
X79943363Y-100467227D01*
X79981241Y-100489931D01*
X80016711Y-100516237D01*
X80049432Y-100545894D01*
X80079089Y-100578615D01*
X80105395Y-100614085D01*
X80128099Y-100651963D01*
X80146980Y-100691884D01*
X80161857Y-100733464D01*
X80172587Y-100776301D01*
X80179067Y-100819984D01*
X80181234Y-100864092D01*
X80181234Y-101764092D01*
X80179067Y-101808200D01*
X80172587Y-101851883D01*
X80161857Y-101894720D01*
X80146980Y-101936300D01*
X80128099Y-101976221D01*
X80105395Y-102014099D01*
X80079089Y-102049569D01*
X80049432Y-102082290D01*
X80016711Y-102111947D01*
X79981241Y-102138253D01*
X79943363Y-102160957D01*
X79903442Y-102179838D01*
X79861862Y-102194715D01*
X79819025Y-102205445D01*
X79775342Y-102211925D01*
X79731234Y-102214092D01*
X78831234Y-102214092D01*
X78787126Y-102211925D01*
X78743443Y-102205445D01*
X78700606Y-102194715D01*
X78659026Y-102179838D01*
X78619105Y-102160957D01*
X78581227Y-102138253D01*
X78545757Y-102111947D01*
X78513036Y-102082290D01*
X78483379Y-102049569D01*
X78457073Y-102014099D01*
X78434369Y-101976221D01*
X78415488Y-101936300D01*
X78400611Y-101894720D01*
X78389881Y-101851883D01*
X78383401Y-101808200D01*
X78381234Y-101764092D01*
X78381234Y-100864092D01*
X78383401Y-100819984D01*
X78389881Y-100776301D01*
X78400611Y-100733464D01*
X78415488Y-100691884D01*
X78434369Y-100651963D01*
X78457073Y-100614085D01*
X78483379Y-100578615D01*
X78513036Y-100545894D01*
X78545757Y-100516237D01*
X78581227Y-100489931D01*
X78619105Y-100467227D01*
X78659026Y-100448346D01*
X78700606Y-100433469D01*
X78743443Y-100422739D01*
X78787126Y-100416259D01*
X78831234Y-100414092D01*
X79731234Y-100414092D01*
X79775342Y-100416259D01*
G37*
G04 #@! TD.AperFunction*
D10*
X118337168Y-99939092D03*
D11*
X115955598Y-98564092D03*
X118337168Y-97189092D03*
X120718738Y-98564092D03*
G04 #@! TA.AperFunction,ComponentPad*
D12*
G36*
X121212846Y-100416259D02*
G01*
X121256529Y-100422739D01*
X121299366Y-100433469D01*
X121340946Y-100448346D01*
X121380867Y-100467227D01*
X121418745Y-100489931D01*
X121454215Y-100516237D01*
X121486936Y-100545894D01*
X121516593Y-100578615D01*
X121542899Y-100614085D01*
X121565603Y-100651963D01*
X121584484Y-100691884D01*
X121599361Y-100733464D01*
X121610091Y-100776301D01*
X121616571Y-100819984D01*
X121618738Y-100864092D01*
X121618738Y-101764092D01*
X121616571Y-101808200D01*
X121610091Y-101851883D01*
X121599361Y-101894720D01*
X121584484Y-101936300D01*
X121565603Y-101976221D01*
X121542899Y-102014099D01*
X121516593Y-102049569D01*
X121486936Y-102082290D01*
X121454215Y-102111947D01*
X121418745Y-102138253D01*
X121380867Y-102160957D01*
X121340946Y-102179838D01*
X121299366Y-102194715D01*
X121256529Y-102205445D01*
X121212846Y-102211925D01*
X121168738Y-102214092D01*
X120268738Y-102214092D01*
X120224630Y-102211925D01*
X120180947Y-102205445D01*
X120138110Y-102194715D01*
X120096530Y-102179838D01*
X120056609Y-102160957D01*
X120018731Y-102138253D01*
X119983261Y-102111947D01*
X119950540Y-102082290D01*
X119920883Y-102049569D01*
X119894577Y-102014099D01*
X119871873Y-101976221D01*
X119852992Y-101936300D01*
X119838115Y-101894720D01*
X119827385Y-101851883D01*
X119820905Y-101808200D01*
X119818738Y-101764092D01*
X119818738Y-100864092D01*
X119820905Y-100819984D01*
X119827385Y-100776301D01*
X119838115Y-100733464D01*
X119852992Y-100691884D01*
X119871873Y-100651963D01*
X119894577Y-100614085D01*
X119920883Y-100578615D01*
X119950540Y-100545894D01*
X119983261Y-100516237D01*
X120018731Y-100489931D01*
X120056609Y-100467227D01*
X120096530Y-100448346D01*
X120138110Y-100433469D01*
X120180947Y-100422739D01*
X120224630Y-100416259D01*
X120268738Y-100414092D01*
X121168738Y-100414092D01*
X121212846Y-100416259D01*
G37*
G04 #@! TD.AperFunction*
G04 #@! TA.AperFunction,ComponentPad*
G36*
X118831276Y-101791259D02*
G01*
X118874959Y-101797739D01*
X118917796Y-101808469D01*
X118959376Y-101823346D01*
X118999297Y-101842227D01*
X119037175Y-101864931D01*
X119072645Y-101891237D01*
X119105366Y-101920894D01*
X119135023Y-101953615D01*
X119161329Y-101989085D01*
X119184033Y-102026963D01*
X119202914Y-102066884D01*
X119217791Y-102108464D01*
X119228521Y-102151301D01*
X119235001Y-102194984D01*
X119237168Y-102239092D01*
X119237168Y-103139092D01*
X119235001Y-103183200D01*
X119228521Y-103226883D01*
X119217791Y-103269720D01*
X119202914Y-103311300D01*
X119184033Y-103351221D01*
X119161329Y-103389099D01*
X119135023Y-103424569D01*
X119105366Y-103457290D01*
X119072645Y-103486947D01*
X119037175Y-103513253D01*
X118999297Y-103535957D01*
X118959376Y-103554838D01*
X118917796Y-103569715D01*
X118874959Y-103580445D01*
X118831276Y-103586925D01*
X118787168Y-103589092D01*
X117887168Y-103589092D01*
X117843060Y-103586925D01*
X117799377Y-103580445D01*
X117756540Y-103569715D01*
X117714960Y-103554838D01*
X117675039Y-103535957D01*
X117637161Y-103513253D01*
X117601691Y-103486947D01*
X117568970Y-103457290D01*
X117539313Y-103424569D01*
X117513007Y-103389099D01*
X117490303Y-103351221D01*
X117471422Y-103311300D01*
X117456545Y-103269720D01*
X117445815Y-103226883D01*
X117439335Y-103183200D01*
X117437168Y-103139092D01*
X117437168Y-102239092D01*
X117439335Y-102194984D01*
X117445815Y-102151301D01*
X117456545Y-102108464D01*
X117471422Y-102066884D01*
X117490303Y-102026963D01*
X117513007Y-101989085D01*
X117539313Y-101953615D01*
X117568970Y-101920894D01*
X117601691Y-101891237D01*
X117637161Y-101864931D01*
X117675039Y-101842227D01*
X117714960Y-101823346D01*
X117756540Y-101808469D01*
X117799377Y-101797739D01*
X117843060Y-101791259D01*
X117887168Y-101789092D01*
X118787168Y-101789092D01*
X118831276Y-101791259D01*
G37*
G04 #@! TD.AperFunction*
G04 #@! TA.AperFunction,ComponentPad*
G36*
X116449706Y-100416259D02*
G01*
X116493389Y-100422739D01*
X116536226Y-100433469D01*
X116577806Y-100448346D01*
X116617727Y-100467227D01*
X116655605Y-100489931D01*
X116691075Y-100516237D01*
X116723796Y-100545894D01*
X116753453Y-100578615D01*
X116779759Y-100614085D01*
X116802463Y-100651963D01*
X116821344Y-100691884D01*
X116836221Y-100733464D01*
X116846951Y-100776301D01*
X116853431Y-100819984D01*
X116855598Y-100864092D01*
X116855598Y-101764092D01*
X116853431Y-101808200D01*
X116846951Y-101851883D01*
X116836221Y-101894720D01*
X116821344Y-101936300D01*
X116802463Y-101976221D01*
X116779759Y-102014099D01*
X116753453Y-102049569D01*
X116723796Y-102082290D01*
X116691075Y-102111947D01*
X116655605Y-102138253D01*
X116617727Y-102160957D01*
X116577806Y-102179838D01*
X116536226Y-102194715D01*
X116493389Y-102205445D01*
X116449706Y-102211925D01*
X116405598Y-102214092D01*
X115505598Y-102214092D01*
X115461490Y-102211925D01*
X115417807Y-102205445D01*
X115374970Y-102194715D01*
X115333390Y-102179838D01*
X115293469Y-102160957D01*
X115255591Y-102138253D01*
X115220121Y-102111947D01*
X115187400Y-102082290D01*
X115157743Y-102049569D01*
X115131437Y-102014099D01*
X115108733Y-101976221D01*
X115089852Y-101936300D01*
X115074975Y-101894720D01*
X115064245Y-101851883D01*
X115057765Y-101808200D01*
X115055598Y-101764092D01*
X115055598Y-100864092D01*
X115057765Y-100819984D01*
X115064245Y-100776301D01*
X115074975Y-100733464D01*
X115089852Y-100691884D01*
X115108733Y-100651963D01*
X115131437Y-100614085D01*
X115157743Y-100578615D01*
X115187400Y-100545894D01*
X115220121Y-100516237D01*
X115255591Y-100489931D01*
X115293469Y-100467227D01*
X115333390Y-100448346D01*
X115374970Y-100433469D01*
X115417807Y-100422739D01*
X115461490Y-100416259D01*
X115505598Y-100414092D01*
X116405598Y-100414092D01*
X116449706Y-100416259D01*
G37*
G04 #@! TD.AperFunction*
G04 #@! TA.AperFunction,SMDPad,CuDef*
G36*
X90819505Y-99201204D02*
G01*
X90843773Y-99204804D01*
X90867572Y-99210765D01*
X90890671Y-99219030D01*
X90912850Y-99229520D01*
X90933893Y-99242132D01*
X90953599Y-99256747D01*
X90971777Y-99273223D01*
X90988253Y-99291401D01*
X91002868Y-99311107D01*
X91015480Y-99332150D01*
X91025970Y-99354329D01*
X91034235Y-99377428D01*
X91040196Y-99401227D01*
X91043796Y-99425495D01*
X91045000Y-99449999D01*
X91045000Y-100350001D01*
X91043796Y-100374505D01*
X91040196Y-100398773D01*
X91034235Y-100422572D01*
X91025970Y-100445671D01*
X91015480Y-100467850D01*
X91002868Y-100488893D01*
X90988253Y-100508599D01*
X90971777Y-100526777D01*
X90953599Y-100543253D01*
X90933893Y-100557868D01*
X90912850Y-100570480D01*
X90890671Y-100580970D01*
X90867572Y-100589235D01*
X90843773Y-100595196D01*
X90819505Y-100598796D01*
X90795001Y-100600000D01*
X90144999Y-100600000D01*
X90120495Y-100598796D01*
X90096227Y-100595196D01*
X90072428Y-100589235D01*
X90049329Y-100580970D01*
X90027150Y-100570480D01*
X90006107Y-100557868D01*
X89986401Y-100543253D01*
X89968223Y-100526777D01*
X89951747Y-100508599D01*
X89937132Y-100488893D01*
X89924520Y-100467850D01*
X89914030Y-100445671D01*
X89905765Y-100422572D01*
X89899804Y-100398773D01*
X89896204Y-100374505D01*
X89895000Y-100350001D01*
X89895000Y-99449999D01*
X89896204Y-99425495D01*
X89899804Y-99401227D01*
X89905765Y-99377428D01*
X89914030Y-99354329D01*
X89924520Y-99332150D01*
X89937132Y-99311107D01*
X89951747Y-99291401D01*
X89968223Y-99273223D01*
X89986401Y-99256747D01*
X90006107Y-99242132D01*
X90027150Y-99229520D01*
X90049329Y-99219030D01*
X90072428Y-99210765D01*
X90096227Y-99204804D01*
X90120495Y-99201204D01*
X90144999Y-99200000D01*
X90795001Y-99200000D01*
X90819505Y-99201204D01*
G37*
G04 #@! TD.AperFunction*
G04 #@! TA.AperFunction,SMDPad,CuDef*
G36*
X92869505Y-99201204D02*
G01*
X92893773Y-99204804D01*
X92917572Y-99210765D01*
X92940671Y-99219030D01*
X92962850Y-99229520D01*
X92983893Y-99242132D01*
X93003599Y-99256747D01*
X93021777Y-99273223D01*
X93038253Y-99291401D01*
X93052868Y-99311107D01*
X93065480Y-99332150D01*
X93075970Y-99354329D01*
X93084235Y-99377428D01*
X93090196Y-99401227D01*
X93093796Y-99425495D01*
X93095000Y-99449999D01*
X93095000Y-100350001D01*
X93093796Y-100374505D01*
X93090196Y-100398773D01*
X93084235Y-100422572D01*
X93075970Y-100445671D01*
X93065480Y-100467850D01*
X93052868Y-100488893D01*
X93038253Y-100508599D01*
X93021777Y-100526777D01*
X93003599Y-100543253D01*
X92983893Y-100557868D01*
X92962850Y-100570480D01*
X92940671Y-100580970D01*
X92917572Y-100589235D01*
X92893773Y-100595196D01*
X92869505Y-100598796D01*
X92845001Y-100600000D01*
X92194999Y-100600000D01*
X92170495Y-100598796D01*
X92146227Y-100595196D01*
X92122428Y-100589235D01*
X92099329Y-100580970D01*
X92077150Y-100570480D01*
X92056107Y-100557868D01*
X92036401Y-100543253D01*
X92018223Y-100526777D01*
X92001747Y-100508599D01*
X91987132Y-100488893D01*
X91974520Y-100467850D01*
X91964030Y-100445671D01*
X91955765Y-100422572D01*
X91949804Y-100398773D01*
X91946204Y-100374505D01*
X91945000Y-100350001D01*
X91945000Y-99449999D01*
X91946204Y-99425495D01*
X91949804Y-99401227D01*
X91955765Y-99377428D01*
X91964030Y-99354329D01*
X91974520Y-99332150D01*
X91987132Y-99311107D01*
X92001747Y-99291401D01*
X92018223Y-99273223D01*
X92036401Y-99256747D01*
X92056107Y-99242132D01*
X92077150Y-99229520D01*
X92099329Y-99219030D01*
X92122428Y-99210765D01*
X92146227Y-99204804D01*
X92170495Y-99201204D01*
X92194999Y-99200000D01*
X92845001Y-99200000D01*
X92869505Y-99201204D01*
G37*
G04 #@! TD.AperFunction*
G04 #@! TA.AperFunction,SMDPad,CuDef*
G36*
X101379505Y-99201204D02*
G01*
X101403773Y-99204804D01*
X101427572Y-99210765D01*
X101450671Y-99219030D01*
X101472850Y-99229520D01*
X101493893Y-99242132D01*
X101513599Y-99256747D01*
X101531777Y-99273223D01*
X101548253Y-99291401D01*
X101562868Y-99311107D01*
X101575480Y-99332150D01*
X101585970Y-99354329D01*
X101594235Y-99377428D01*
X101600196Y-99401227D01*
X101603796Y-99425495D01*
X101605000Y-99449999D01*
X101605000Y-100350001D01*
X101603796Y-100374505D01*
X101600196Y-100398773D01*
X101594235Y-100422572D01*
X101585970Y-100445671D01*
X101575480Y-100467850D01*
X101562868Y-100488893D01*
X101548253Y-100508599D01*
X101531777Y-100526777D01*
X101513599Y-100543253D01*
X101493893Y-100557868D01*
X101472850Y-100570480D01*
X101450671Y-100580970D01*
X101427572Y-100589235D01*
X101403773Y-100595196D01*
X101379505Y-100598796D01*
X101355001Y-100600000D01*
X100704999Y-100600000D01*
X100680495Y-100598796D01*
X100656227Y-100595196D01*
X100632428Y-100589235D01*
X100609329Y-100580970D01*
X100587150Y-100570480D01*
X100566107Y-100557868D01*
X100546401Y-100543253D01*
X100528223Y-100526777D01*
X100511747Y-100508599D01*
X100497132Y-100488893D01*
X100484520Y-100467850D01*
X100474030Y-100445671D01*
X100465765Y-100422572D01*
X100459804Y-100398773D01*
X100456204Y-100374505D01*
X100455000Y-100350001D01*
X100455000Y-99449999D01*
X100456204Y-99425495D01*
X100459804Y-99401227D01*
X100465765Y-99377428D01*
X100474030Y-99354329D01*
X100484520Y-99332150D01*
X100497132Y-99311107D01*
X100511747Y-99291401D01*
X100528223Y-99273223D01*
X100546401Y-99256747D01*
X100566107Y-99242132D01*
X100587150Y-99229520D01*
X100609329Y-99219030D01*
X100632428Y-99210765D01*
X100656227Y-99204804D01*
X100680495Y-99201204D01*
X100704999Y-99200000D01*
X101355001Y-99200000D01*
X101379505Y-99201204D01*
G37*
G04 #@! TD.AperFunction*
G04 #@! TA.AperFunction,SMDPad,CuDef*
G36*
X99329505Y-99201204D02*
G01*
X99353773Y-99204804D01*
X99377572Y-99210765D01*
X99400671Y-99219030D01*
X99422850Y-99229520D01*
X99443893Y-99242132D01*
X99463599Y-99256747D01*
X99481777Y-99273223D01*
X99498253Y-99291401D01*
X99512868Y-99311107D01*
X99525480Y-99332150D01*
X99535970Y-99354329D01*
X99544235Y-99377428D01*
X99550196Y-99401227D01*
X99553796Y-99425495D01*
X99555000Y-99449999D01*
X99555000Y-100350001D01*
X99553796Y-100374505D01*
X99550196Y-100398773D01*
X99544235Y-100422572D01*
X99535970Y-100445671D01*
X99525480Y-100467850D01*
X99512868Y-100488893D01*
X99498253Y-100508599D01*
X99481777Y-100526777D01*
X99463599Y-100543253D01*
X99443893Y-100557868D01*
X99422850Y-100570480D01*
X99400671Y-100580970D01*
X99377572Y-100589235D01*
X99353773Y-100595196D01*
X99329505Y-100598796D01*
X99305001Y-100600000D01*
X98654999Y-100600000D01*
X98630495Y-100598796D01*
X98606227Y-100595196D01*
X98582428Y-100589235D01*
X98559329Y-100580970D01*
X98537150Y-100570480D01*
X98516107Y-100557868D01*
X98496401Y-100543253D01*
X98478223Y-100526777D01*
X98461747Y-100508599D01*
X98447132Y-100488893D01*
X98434520Y-100467850D01*
X98424030Y-100445671D01*
X98415765Y-100422572D01*
X98409804Y-100398773D01*
X98406204Y-100374505D01*
X98405000Y-100350001D01*
X98405000Y-99449999D01*
X98406204Y-99425495D01*
X98409804Y-99401227D01*
X98415765Y-99377428D01*
X98424030Y-99354329D01*
X98434520Y-99332150D01*
X98447132Y-99311107D01*
X98461747Y-99291401D01*
X98478223Y-99273223D01*
X98496401Y-99256747D01*
X98516107Y-99242132D01*
X98537150Y-99229520D01*
X98559329Y-99219030D01*
X98582428Y-99210765D01*
X98606227Y-99204804D01*
X98630495Y-99201204D01*
X98654999Y-99200000D01*
X99305001Y-99200000D01*
X99329505Y-99201204D01*
G37*
G04 #@! TD.AperFunction*
D13*
X92530000Y-99930000D02*
X92520000Y-99940000D01*
X98980000Y-99930000D02*
X92530000Y-99930000D01*
D14*
X90470000Y-99940000D02*
X90470000Y-100640000D01*
X84944374Y-101314092D02*
X84948466Y-101310000D01*
X84044374Y-101314092D02*
X84944374Y-101314092D01*
X89800000Y-101310000D02*
X90470000Y-100640000D01*
X84948466Y-101310000D02*
X89800000Y-101310000D01*
D15*
G36*
X119402010Y-92362354D02*
G01*
X120446123Y-92584286D01*
X121449193Y-92949374D01*
X122391691Y-93450509D01*
X123255261Y-94077931D01*
X124023116Y-94819440D01*
X124680300Y-95660596D01*
X125214023Y-96585031D01*
X125613890Y-97574739D01*
X125872129Y-98610477D01*
X125983707Y-99672065D01*
X125946454Y-100738861D01*
X125761094Y-101790086D01*
X125431237Y-102805280D01*
X124963303Y-103764688D01*
X124366397Y-104649638D01*
X123652136Y-105442906D01*
X122834434Y-106129040D01*
X121929188Y-106694699D01*
X120954033Y-107128867D01*
X119927940Y-107423094D01*
X118859439Y-107573262D01*
X118325646Y-107591903D01*
X81685848Y-107591903D01*
X80597961Y-107515830D01*
X79553849Y-107293898D01*
X78550779Y-106928810D01*
X77608290Y-106427680D01*
X76744710Y-105800253D01*
X75976856Y-105058744D01*
X75319672Y-104217588D01*
X74785951Y-103293155D01*
X74386082Y-102303445D01*
X74127843Y-101267706D01*
X74085422Y-100864092D01*
X77743162Y-100864092D01*
X77743162Y-101764092D01*
X77764069Y-101976364D01*
X77825987Y-102180479D01*
X77926535Y-102368592D01*
X78061851Y-102533475D01*
X78226734Y-102668791D01*
X78414847Y-102769339D01*
X78618962Y-102831257D01*
X78831234Y-102852164D01*
X79731234Y-102852164D01*
X79943506Y-102831257D01*
X80124732Y-102776282D01*
X80124732Y-103139092D01*
X80145639Y-103351364D01*
X80207557Y-103555479D01*
X80308105Y-103743592D01*
X80443421Y-103908475D01*
X80608304Y-104043791D01*
X80796417Y-104144339D01*
X81000532Y-104206257D01*
X81212804Y-104227164D01*
X82112804Y-104227164D01*
X82325076Y-104206257D01*
X82529191Y-104144339D01*
X82717304Y-104043791D01*
X82882187Y-103908475D01*
X83017503Y-103743592D01*
X83118051Y-103555479D01*
X83179969Y-103351364D01*
X83200876Y-103139092D01*
X83200876Y-102776282D01*
X83382102Y-102831257D01*
X83594374Y-102852164D01*
X84494374Y-102852164D01*
X84706646Y-102831257D01*
X84910761Y-102769339D01*
X85098874Y-102668791D01*
X85263757Y-102533475D01*
X85336367Y-102445000D01*
X89744249Y-102445000D01*
X89800000Y-102450491D01*
X89855751Y-102445000D01*
X89855752Y-102445000D01*
X90022499Y-102428577D01*
X90236447Y-102363676D01*
X90433623Y-102258284D01*
X90606449Y-102116449D01*
X90641996Y-102073135D01*
X91233135Y-101481996D01*
X91276449Y-101446449D01*
X91418284Y-101273623D01*
X91523676Y-101076447D01*
X91554068Y-100976260D01*
X91557191Y-100965964D01*
X91567038Y-100977962D01*
X91701613Y-101088405D01*
X91855149Y-101170472D01*
X92021745Y-101221008D01*
X92194999Y-101238072D01*
X92845001Y-101238072D01*
X93018255Y-101221008D01*
X93184851Y-101170472D01*
X93338387Y-101088405D01*
X93472962Y-100977962D01*
X93583405Y-100843387D01*
X93598578Y-100815000D01*
X97901422Y-100815000D01*
X97916595Y-100843387D01*
X98027038Y-100977962D01*
X98161613Y-101088405D01*
X98315149Y-101170472D01*
X98481745Y-101221008D01*
X98654999Y-101238072D01*
X99305001Y-101238072D01*
X99478255Y-101221008D01*
X99644851Y-101170472D01*
X99798387Y-101088405D01*
X99932962Y-100977962D01*
X99938342Y-100971406D01*
X100003815Y-101051185D01*
X100100506Y-101130537D01*
X100210820Y-101189502D01*
X100330518Y-101225812D01*
X100455000Y-101238072D01*
X100744250Y-101235000D01*
X100903000Y-101076250D01*
X100903000Y-100027000D01*
X101157000Y-100027000D01*
X101157000Y-101076250D01*
X101315750Y-101235000D01*
X101605000Y-101238072D01*
X101729482Y-101225812D01*
X101849180Y-101189502D01*
X101959494Y-101130537D01*
X102056185Y-101051185D01*
X102135537Y-100954494D01*
X102183858Y-100864092D01*
X114417526Y-100864092D01*
X114417526Y-101764092D01*
X114438433Y-101976364D01*
X114500351Y-102180479D01*
X114600899Y-102368592D01*
X114736215Y-102533475D01*
X114901098Y-102668791D01*
X115089211Y-102769339D01*
X115293326Y-102831257D01*
X115505598Y-102852164D01*
X116405598Y-102852164D01*
X116617870Y-102831257D01*
X116799096Y-102776282D01*
X116799096Y-103139092D01*
X116820003Y-103351364D01*
X116881921Y-103555479D01*
X116982469Y-103743592D01*
X117117785Y-103908475D01*
X117282668Y-104043791D01*
X117470781Y-104144339D01*
X117674896Y-104206257D01*
X117887168Y-104227164D01*
X118787168Y-104227164D01*
X118999440Y-104206257D01*
X119203555Y-104144339D01*
X119391668Y-104043791D01*
X119556551Y-103908475D01*
X119691867Y-103743592D01*
X119792415Y-103555479D01*
X119854333Y-103351364D01*
X119875240Y-103139092D01*
X119875240Y-102776282D01*
X120056466Y-102831257D01*
X120268738Y-102852164D01*
X121168738Y-102852164D01*
X121381010Y-102831257D01*
X121585125Y-102769339D01*
X121773238Y-102668791D01*
X121938121Y-102533475D01*
X122073437Y-102368592D01*
X122173985Y-102180479D01*
X122235903Y-101976364D01*
X122256810Y-101764092D01*
X122256810Y-100864092D01*
X122235903Y-100651820D01*
X122173985Y-100447705D01*
X122073437Y-100259592D01*
X121938121Y-100094709D01*
X121773238Y-99959393D01*
X121611691Y-99873045D01*
X121674546Y-99699505D01*
X120718738Y-98743697D01*
X120704596Y-98757840D01*
X120524991Y-98578235D01*
X120539133Y-98564092D01*
X120898343Y-98564092D01*
X121854151Y-99519900D01*
X122118552Y-99424136D01*
X122259442Y-99134521D01*
X122341122Y-98822984D01*
X122360456Y-98501497D01*
X122316699Y-98182417D01*
X122211533Y-97878004D01*
X122118552Y-97704048D01*
X121854151Y-97608284D01*
X120898343Y-98564092D01*
X120539133Y-98564092D01*
X120524991Y-98549950D01*
X120704596Y-98370345D01*
X120718738Y-98384487D01*
X121674546Y-97428679D01*
X121578782Y-97164278D01*
X121289167Y-97023388D01*
X120977630Y-96941708D01*
X120656143Y-96922374D01*
X120337063Y-96966131D01*
X120032650Y-97071297D01*
X119975505Y-97101842D01*
X119935129Y-96807417D01*
X119829963Y-96503004D01*
X119736982Y-96329048D01*
X119472581Y-96233284D01*
X118516773Y-97189092D01*
X118530916Y-97203235D01*
X118351311Y-97382840D01*
X118337168Y-97368697D01*
X118323026Y-97382840D01*
X118143421Y-97203235D01*
X118157563Y-97189092D01*
X117201755Y-96233284D01*
X116937354Y-96329048D01*
X116796464Y-96618663D01*
X116714784Y-96930200D01*
X116703974Y-97109954D01*
X116526027Y-97023388D01*
X116214490Y-96941708D01*
X115893003Y-96922374D01*
X115573923Y-96966131D01*
X115269510Y-97071297D01*
X115095554Y-97164278D01*
X114999790Y-97428679D01*
X115955598Y-98384487D01*
X115969741Y-98370345D01*
X116149346Y-98549950D01*
X116135203Y-98564092D01*
X116149346Y-98578235D01*
X115969741Y-98757840D01*
X115955598Y-98743697D01*
X114999790Y-99699505D01*
X115062645Y-99873045D01*
X114901098Y-99959393D01*
X114736215Y-100094709D01*
X114600899Y-100259592D01*
X114500351Y-100447705D01*
X114438433Y-100651820D01*
X114417526Y-100864092D01*
X102183858Y-100864092D01*
X102194502Y-100844180D01*
X102230812Y-100724482D01*
X102243072Y-100600000D01*
X102240000Y-100185750D01*
X102081250Y-100027000D01*
X101157000Y-100027000D01*
X100903000Y-100027000D01*
X100883000Y-100027000D01*
X100883000Y-99773000D01*
X100903000Y-99773000D01*
X100903000Y-98723750D01*
X101157000Y-98723750D01*
X101157000Y-99773000D01*
X102081250Y-99773000D01*
X102240000Y-99614250D01*
X102243072Y-99200000D01*
X102230812Y-99075518D01*
X102194502Y-98955820D01*
X102135537Y-98845506D01*
X102056185Y-98748815D01*
X101959494Y-98669463D01*
X101879468Y-98626687D01*
X114313880Y-98626687D01*
X114357637Y-98945767D01*
X114462803Y-99250180D01*
X114555784Y-99424136D01*
X114820185Y-99519900D01*
X115775993Y-98564092D01*
X114820185Y-97608284D01*
X114555784Y-97704048D01*
X114414894Y-97993663D01*
X114333214Y-98305200D01*
X114313880Y-98626687D01*
X101879468Y-98626687D01*
X101849180Y-98610498D01*
X101729482Y-98574188D01*
X101605000Y-98561928D01*
X101315750Y-98565000D01*
X101157000Y-98723750D01*
X100903000Y-98723750D01*
X100744250Y-98565000D01*
X100455000Y-98561928D01*
X100330518Y-98574188D01*
X100210820Y-98610498D01*
X100100506Y-98669463D01*
X100003815Y-98748815D01*
X99938342Y-98828594D01*
X99932962Y-98822038D01*
X99798387Y-98711595D01*
X99644851Y-98629528D01*
X99478255Y-98578992D01*
X99305001Y-98561928D01*
X98654999Y-98561928D01*
X98481745Y-98578992D01*
X98315149Y-98629528D01*
X98161613Y-98711595D01*
X98027038Y-98822038D01*
X97916595Y-98956613D01*
X97869351Y-99045000D01*
X93630649Y-99045000D01*
X93583405Y-98956613D01*
X93472962Y-98822038D01*
X93338387Y-98711595D01*
X93184851Y-98629528D01*
X93018255Y-98578992D01*
X92845001Y-98561928D01*
X92194999Y-98561928D01*
X92021745Y-98578992D01*
X91855149Y-98629528D01*
X91701613Y-98711595D01*
X91567038Y-98822038D01*
X91495000Y-98909816D01*
X91422962Y-98822038D01*
X91288387Y-98711595D01*
X91134851Y-98629528D01*
X90968255Y-98578992D01*
X90795001Y-98561928D01*
X90144999Y-98561928D01*
X89971745Y-98578992D01*
X89805149Y-98629528D01*
X89651613Y-98711595D01*
X89517038Y-98822038D01*
X89406595Y-98956613D01*
X89324528Y-99110149D01*
X89273992Y-99276745D01*
X89256928Y-99449999D01*
X89256928Y-100175000D01*
X85329650Y-100175000D01*
X85263757Y-100094709D01*
X85098874Y-99959393D01*
X84937327Y-99873045D01*
X85000182Y-99699505D01*
X84044374Y-98743697D01*
X84030232Y-98757840D01*
X83850627Y-98578235D01*
X83864769Y-98564092D01*
X84223979Y-98564092D01*
X85179787Y-99519900D01*
X85444188Y-99424136D01*
X85585078Y-99134521D01*
X85666758Y-98822984D01*
X85686092Y-98501497D01*
X85642335Y-98182417D01*
X85537169Y-97878004D01*
X85444188Y-97704048D01*
X85179787Y-97608284D01*
X84223979Y-98564092D01*
X83864769Y-98564092D01*
X83850627Y-98549950D01*
X84030232Y-98370345D01*
X84044374Y-98384487D01*
X85000182Y-97428679D01*
X84904418Y-97164278D01*
X84614803Y-97023388D01*
X84303266Y-96941708D01*
X83981779Y-96922374D01*
X83662699Y-96966131D01*
X83358286Y-97071297D01*
X83301141Y-97101842D01*
X83260765Y-96807417D01*
X83155599Y-96503004D01*
X83062618Y-96329048D01*
X82798217Y-96233284D01*
X81842409Y-97189092D01*
X81856552Y-97203235D01*
X81676947Y-97382840D01*
X81662804Y-97368697D01*
X81648662Y-97382840D01*
X81469057Y-97203235D01*
X81483199Y-97189092D01*
X80527391Y-96233284D01*
X80262990Y-96329048D01*
X80122100Y-96618663D01*
X80040420Y-96930200D01*
X80029610Y-97109954D01*
X79851663Y-97023388D01*
X79540126Y-96941708D01*
X79218639Y-96922374D01*
X78899559Y-96966131D01*
X78595146Y-97071297D01*
X78421190Y-97164278D01*
X78325426Y-97428679D01*
X79281234Y-98384487D01*
X79295377Y-98370345D01*
X79474982Y-98549950D01*
X79460839Y-98564092D01*
X79474982Y-98578235D01*
X79295377Y-98757840D01*
X79281234Y-98743697D01*
X78325426Y-99699505D01*
X78388281Y-99873045D01*
X78226734Y-99959393D01*
X78061851Y-100094709D01*
X77926535Y-100259592D01*
X77825987Y-100447705D01*
X77764069Y-100651820D01*
X77743162Y-100864092D01*
X74085422Y-100864092D01*
X74016266Y-100206118D01*
X74053518Y-99139323D01*
X74143909Y-98626687D01*
X77639516Y-98626687D01*
X77683273Y-98945767D01*
X77788439Y-99250180D01*
X77881420Y-99424136D01*
X78145821Y-99519900D01*
X79101629Y-98564092D01*
X78145821Y-97608284D01*
X77881420Y-97704048D01*
X77740530Y-97993663D01*
X77658850Y-98305200D01*
X77639516Y-98626687D01*
X74143909Y-98626687D01*
X74238878Y-98088098D01*
X74568735Y-97072904D01*
X75036669Y-96113493D01*
X75077014Y-96053679D01*
X80706996Y-96053679D01*
X81662804Y-97009487D01*
X82618612Y-96053679D01*
X117381360Y-96053679D01*
X118337168Y-97009487D01*
X119292976Y-96053679D01*
X119197212Y-95789278D01*
X118907597Y-95648388D01*
X118596060Y-95566708D01*
X118274573Y-95547374D01*
X117955493Y-95591131D01*
X117651080Y-95696297D01*
X117477124Y-95789278D01*
X117381360Y-96053679D01*
X82618612Y-96053679D01*
X82522848Y-95789278D01*
X82233233Y-95648388D01*
X81921696Y-95566708D01*
X81600209Y-95547374D01*
X81281129Y-95591131D01*
X80976716Y-95696297D01*
X80802760Y-95789278D01*
X80706996Y-96053679D01*
X75077014Y-96053679D01*
X75633575Y-95228546D01*
X76347836Y-94435278D01*
X77165539Y-93749144D01*
X78070783Y-93183485D01*
X79045937Y-92749318D01*
X80072032Y-92455090D01*
X81140535Y-92304922D01*
X81674326Y-92286281D01*
X118314124Y-92286281D01*
X119402010Y-92362354D01*
G37*
X119402010Y-92362354D02*
X120446123Y-92584286D01*
X121449193Y-92949374D01*
X122391691Y-93450509D01*
X123255261Y-94077931D01*
X124023116Y-94819440D01*
X124680300Y-95660596D01*
X125214023Y-96585031D01*
X125613890Y-97574739D01*
X125872129Y-98610477D01*
X125983707Y-99672065D01*
X125946454Y-100738861D01*
X125761094Y-101790086D01*
X125431237Y-102805280D01*
X124963303Y-103764688D01*
X124366397Y-104649638D01*
X123652136Y-105442906D01*
X122834434Y-106129040D01*
X121929188Y-106694699D01*
X120954033Y-107128867D01*
X119927940Y-107423094D01*
X118859439Y-107573262D01*
X118325646Y-107591903D01*
X81685848Y-107591903D01*
X80597961Y-107515830D01*
X79553849Y-107293898D01*
X78550779Y-106928810D01*
X77608290Y-106427680D01*
X76744710Y-105800253D01*
X75976856Y-105058744D01*
X75319672Y-104217588D01*
X74785951Y-103293155D01*
X74386082Y-102303445D01*
X74127843Y-101267706D01*
X74085422Y-100864092D01*
X77743162Y-100864092D01*
X77743162Y-101764092D01*
X77764069Y-101976364D01*
X77825987Y-102180479D01*
X77926535Y-102368592D01*
X78061851Y-102533475D01*
X78226734Y-102668791D01*
X78414847Y-102769339D01*
X78618962Y-102831257D01*
X78831234Y-102852164D01*
X79731234Y-102852164D01*
X79943506Y-102831257D01*
X80124732Y-102776282D01*
X80124732Y-103139092D01*
X80145639Y-103351364D01*
X80207557Y-103555479D01*
X80308105Y-103743592D01*
X80443421Y-103908475D01*
X80608304Y-104043791D01*
X80796417Y-104144339D01*
X81000532Y-104206257D01*
X81212804Y-104227164D01*
X82112804Y-104227164D01*
X82325076Y-104206257D01*
X82529191Y-104144339D01*
X82717304Y-104043791D01*
X82882187Y-103908475D01*
X83017503Y-103743592D01*
X83118051Y-103555479D01*
X83179969Y-103351364D01*
X83200876Y-103139092D01*
X83200876Y-102776282D01*
X83382102Y-102831257D01*
X83594374Y-102852164D01*
X84494374Y-102852164D01*
X84706646Y-102831257D01*
X84910761Y-102769339D01*
X85098874Y-102668791D01*
X85263757Y-102533475D01*
X85336367Y-102445000D01*
X89744249Y-102445000D01*
X89800000Y-102450491D01*
X89855751Y-102445000D01*
X89855752Y-102445000D01*
X90022499Y-102428577D01*
X90236447Y-102363676D01*
X90433623Y-102258284D01*
X90606449Y-102116449D01*
X90641996Y-102073135D01*
X91233135Y-101481996D01*
X91276449Y-101446449D01*
X91418284Y-101273623D01*
X91523676Y-101076447D01*
X91554068Y-100976260D01*
X91557191Y-100965964D01*
X91567038Y-100977962D01*
X91701613Y-101088405D01*
X91855149Y-101170472D01*
X92021745Y-101221008D01*
X92194999Y-101238072D01*
X92845001Y-101238072D01*
X93018255Y-101221008D01*
X93184851Y-101170472D01*
X93338387Y-101088405D01*
X93472962Y-100977962D01*
X93583405Y-100843387D01*
X93598578Y-100815000D01*
X97901422Y-100815000D01*
X97916595Y-100843387D01*
X98027038Y-100977962D01*
X98161613Y-101088405D01*
X98315149Y-101170472D01*
X98481745Y-101221008D01*
X98654999Y-101238072D01*
X99305001Y-101238072D01*
X99478255Y-101221008D01*
X99644851Y-101170472D01*
X99798387Y-101088405D01*
X99932962Y-100977962D01*
X99938342Y-100971406D01*
X100003815Y-101051185D01*
X100100506Y-101130537D01*
X100210820Y-101189502D01*
X100330518Y-101225812D01*
X100455000Y-101238072D01*
X100744250Y-101235000D01*
X100903000Y-101076250D01*
X100903000Y-100027000D01*
X101157000Y-100027000D01*
X101157000Y-101076250D01*
X101315750Y-101235000D01*
X101605000Y-101238072D01*
X101729482Y-101225812D01*
X101849180Y-101189502D01*
X101959494Y-101130537D01*
X102056185Y-101051185D01*
X102135537Y-100954494D01*
X102183858Y-100864092D01*
X114417526Y-100864092D01*
X114417526Y-101764092D01*
X114438433Y-101976364D01*
X114500351Y-102180479D01*
X114600899Y-102368592D01*
X114736215Y-102533475D01*
X114901098Y-102668791D01*
X115089211Y-102769339D01*
X115293326Y-102831257D01*
X115505598Y-102852164D01*
X116405598Y-102852164D01*
X116617870Y-102831257D01*
X116799096Y-102776282D01*
X116799096Y-103139092D01*
X116820003Y-103351364D01*
X116881921Y-103555479D01*
X116982469Y-103743592D01*
X117117785Y-103908475D01*
X117282668Y-104043791D01*
X117470781Y-104144339D01*
X117674896Y-104206257D01*
X117887168Y-104227164D01*
X118787168Y-104227164D01*
X118999440Y-104206257D01*
X119203555Y-104144339D01*
X119391668Y-104043791D01*
X119556551Y-103908475D01*
X119691867Y-103743592D01*
X119792415Y-103555479D01*
X119854333Y-103351364D01*
X119875240Y-103139092D01*
X119875240Y-102776282D01*
X120056466Y-102831257D01*
X120268738Y-102852164D01*
X121168738Y-102852164D01*
X121381010Y-102831257D01*
X121585125Y-102769339D01*
X121773238Y-102668791D01*
X121938121Y-102533475D01*
X122073437Y-102368592D01*
X122173985Y-102180479D01*
X122235903Y-101976364D01*
X122256810Y-101764092D01*
X122256810Y-100864092D01*
X122235903Y-100651820D01*
X122173985Y-100447705D01*
X122073437Y-100259592D01*
X121938121Y-100094709D01*
X121773238Y-99959393D01*
X121611691Y-99873045D01*
X121674546Y-99699505D01*
X120718738Y-98743697D01*
X120704596Y-98757840D01*
X120524991Y-98578235D01*
X120539133Y-98564092D01*
X120898343Y-98564092D01*
X121854151Y-99519900D01*
X122118552Y-99424136D01*
X122259442Y-99134521D01*
X122341122Y-98822984D01*
X122360456Y-98501497D01*
X122316699Y-98182417D01*
X122211533Y-97878004D01*
X122118552Y-97704048D01*
X121854151Y-97608284D01*
X120898343Y-98564092D01*
X120539133Y-98564092D01*
X120524991Y-98549950D01*
X120704596Y-98370345D01*
X120718738Y-98384487D01*
X121674546Y-97428679D01*
X121578782Y-97164278D01*
X121289167Y-97023388D01*
X120977630Y-96941708D01*
X120656143Y-96922374D01*
X120337063Y-96966131D01*
X120032650Y-97071297D01*
X119975505Y-97101842D01*
X119935129Y-96807417D01*
X119829963Y-96503004D01*
X119736982Y-96329048D01*
X119472581Y-96233284D01*
X118516773Y-97189092D01*
X118530916Y-97203235D01*
X118351311Y-97382840D01*
X118337168Y-97368697D01*
X118323026Y-97382840D01*
X118143421Y-97203235D01*
X118157563Y-97189092D01*
X117201755Y-96233284D01*
X116937354Y-96329048D01*
X116796464Y-96618663D01*
X116714784Y-96930200D01*
X116703974Y-97109954D01*
X116526027Y-97023388D01*
X116214490Y-96941708D01*
X115893003Y-96922374D01*
X115573923Y-96966131D01*
X115269510Y-97071297D01*
X115095554Y-97164278D01*
X114999790Y-97428679D01*
X115955598Y-98384487D01*
X115969741Y-98370345D01*
X116149346Y-98549950D01*
X116135203Y-98564092D01*
X116149346Y-98578235D01*
X115969741Y-98757840D01*
X115955598Y-98743697D01*
X114999790Y-99699505D01*
X115062645Y-99873045D01*
X114901098Y-99959393D01*
X114736215Y-100094709D01*
X114600899Y-100259592D01*
X114500351Y-100447705D01*
X114438433Y-100651820D01*
X114417526Y-100864092D01*
X102183858Y-100864092D01*
X102194502Y-100844180D01*
X102230812Y-100724482D01*
X102243072Y-100600000D01*
X102240000Y-100185750D01*
X102081250Y-100027000D01*
X101157000Y-100027000D01*
X100903000Y-100027000D01*
X100883000Y-100027000D01*
X100883000Y-99773000D01*
X100903000Y-99773000D01*
X100903000Y-98723750D01*
X101157000Y-98723750D01*
X101157000Y-99773000D01*
X102081250Y-99773000D01*
X102240000Y-99614250D01*
X102243072Y-99200000D01*
X102230812Y-99075518D01*
X102194502Y-98955820D01*
X102135537Y-98845506D01*
X102056185Y-98748815D01*
X101959494Y-98669463D01*
X101879468Y-98626687D01*
X114313880Y-98626687D01*
X114357637Y-98945767D01*
X114462803Y-99250180D01*
X114555784Y-99424136D01*
X114820185Y-99519900D01*
X115775993Y-98564092D01*
X114820185Y-97608284D01*
X114555784Y-97704048D01*
X114414894Y-97993663D01*
X114333214Y-98305200D01*
X114313880Y-98626687D01*
X101879468Y-98626687D01*
X101849180Y-98610498D01*
X101729482Y-98574188D01*
X101605000Y-98561928D01*
X101315750Y-98565000D01*
X101157000Y-98723750D01*
X100903000Y-98723750D01*
X100744250Y-98565000D01*
X100455000Y-98561928D01*
X100330518Y-98574188D01*
X100210820Y-98610498D01*
X100100506Y-98669463D01*
X100003815Y-98748815D01*
X99938342Y-98828594D01*
X99932962Y-98822038D01*
X99798387Y-98711595D01*
X99644851Y-98629528D01*
X99478255Y-98578992D01*
X99305001Y-98561928D01*
X98654999Y-98561928D01*
X98481745Y-98578992D01*
X98315149Y-98629528D01*
X98161613Y-98711595D01*
X98027038Y-98822038D01*
X97916595Y-98956613D01*
X97869351Y-99045000D01*
X93630649Y-99045000D01*
X93583405Y-98956613D01*
X93472962Y-98822038D01*
X93338387Y-98711595D01*
X93184851Y-98629528D01*
X93018255Y-98578992D01*
X92845001Y-98561928D01*
X92194999Y-98561928D01*
X92021745Y-98578992D01*
X91855149Y-98629528D01*
X91701613Y-98711595D01*
X91567038Y-98822038D01*
X91495000Y-98909816D01*
X91422962Y-98822038D01*
X91288387Y-98711595D01*
X91134851Y-98629528D01*
X90968255Y-98578992D01*
X90795001Y-98561928D01*
X90144999Y-98561928D01*
X89971745Y-98578992D01*
X89805149Y-98629528D01*
X89651613Y-98711595D01*
X89517038Y-98822038D01*
X89406595Y-98956613D01*
X89324528Y-99110149D01*
X89273992Y-99276745D01*
X89256928Y-99449999D01*
X89256928Y-100175000D01*
X85329650Y-100175000D01*
X85263757Y-100094709D01*
X85098874Y-99959393D01*
X84937327Y-99873045D01*
X85000182Y-99699505D01*
X84044374Y-98743697D01*
X84030232Y-98757840D01*
X83850627Y-98578235D01*
X83864769Y-98564092D01*
X84223979Y-98564092D01*
X85179787Y-99519900D01*
X85444188Y-99424136D01*
X85585078Y-99134521D01*
X85666758Y-98822984D01*
X85686092Y-98501497D01*
X85642335Y-98182417D01*
X85537169Y-97878004D01*
X85444188Y-97704048D01*
X85179787Y-97608284D01*
X84223979Y-98564092D01*
X83864769Y-98564092D01*
X83850627Y-98549950D01*
X84030232Y-98370345D01*
X84044374Y-98384487D01*
X85000182Y-97428679D01*
X84904418Y-97164278D01*
X84614803Y-97023388D01*
X84303266Y-96941708D01*
X83981779Y-96922374D01*
X83662699Y-96966131D01*
X83358286Y-97071297D01*
X83301141Y-97101842D01*
X83260765Y-96807417D01*
X83155599Y-96503004D01*
X83062618Y-96329048D01*
X82798217Y-96233284D01*
X81842409Y-97189092D01*
X81856552Y-97203235D01*
X81676947Y-97382840D01*
X81662804Y-97368697D01*
X81648662Y-97382840D01*
X81469057Y-97203235D01*
X81483199Y-97189092D01*
X80527391Y-96233284D01*
X80262990Y-96329048D01*
X80122100Y-96618663D01*
X80040420Y-96930200D01*
X80029610Y-97109954D01*
X79851663Y-97023388D01*
X79540126Y-96941708D01*
X79218639Y-96922374D01*
X78899559Y-96966131D01*
X78595146Y-97071297D01*
X78421190Y-97164278D01*
X78325426Y-97428679D01*
X79281234Y-98384487D01*
X79295377Y-98370345D01*
X79474982Y-98549950D01*
X79460839Y-98564092D01*
X79474982Y-98578235D01*
X79295377Y-98757840D01*
X79281234Y-98743697D01*
X78325426Y-99699505D01*
X78388281Y-99873045D01*
X78226734Y-99959393D01*
X78061851Y-100094709D01*
X77926535Y-100259592D01*
X77825987Y-100447705D01*
X77764069Y-100651820D01*
X77743162Y-100864092D01*
X74085422Y-100864092D01*
X74016266Y-100206118D01*
X74053518Y-99139323D01*
X74143909Y-98626687D01*
X77639516Y-98626687D01*
X77683273Y-98945767D01*
X77788439Y-99250180D01*
X77881420Y-99424136D01*
X78145821Y-99519900D01*
X79101629Y-98564092D01*
X78145821Y-97608284D01*
X77881420Y-97704048D01*
X77740530Y-97993663D01*
X77658850Y-98305200D01*
X77639516Y-98626687D01*
X74143909Y-98626687D01*
X74238878Y-98088098D01*
X74568735Y-97072904D01*
X75036669Y-96113493D01*
X75077014Y-96053679D01*
X80706996Y-96053679D01*
X81662804Y-97009487D01*
X82618612Y-96053679D01*
X117381360Y-96053679D01*
X118337168Y-97009487D01*
X119292976Y-96053679D01*
X119197212Y-95789278D01*
X118907597Y-95648388D01*
X118596060Y-95566708D01*
X118274573Y-95547374D01*
X117955493Y-95591131D01*
X117651080Y-95696297D01*
X117477124Y-95789278D01*
X117381360Y-96053679D01*
X82618612Y-96053679D01*
X82522848Y-95789278D01*
X82233233Y-95648388D01*
X81921696Y-95566708D01*
X81600209Y-95547374D01*
X81281129Y-95591131D01*
X80976716Y-95696297D01*
X80802760Y-95789278D01*
X80706996Y-96053679D01*
X75077014Y-96053679D01*
X75633575Y-95228546D01*
X76347836Y-94435278D01*
X77165539Y-93749144D01*
X78070783Y-93183485D01*
X79045937Y-92749318D01*
X80072032Y-92455090D01*
X81140535Y-92304922D01*
X81674326Y-92286281D01*
X118314124Y-92286281D01*
X119402010Y-92362354D01*
M02*
