G04 #@! TF.GenerationSoftware,KiCad,Pcbnew,(5.1.5)-3*
G04 #@! TF.CreationDate,2021-05-02T18:23:50+02:00*
G04 #@! TF.ProjectId,Stacked desk light,53746163-6b65-4642-9064-65736b206c69,rev?*
G04 #@! TF.SameCoordinates,Original*
G04 #@! TF.FileFunction,Legend,Top*
G04 #@! TF.FilePolarity,Positive*
%FSLAX46Y46*%
G04 Gerber Fmt 4.6, Leading zero omitted, Abs format (unit mm)*
G04 Created by KiCad (PCBNEW (5.1.5)-3) date 2021-05-02 18:23:50*
%MOMM*%
%LPD*%
G04 APERTURE LIST*
%ADD10C,0.120000*%
%ADD11C,0.150000*%
G04 APERTURE END LIST*
D10*
X91756252Y-99190000D02*
X91233748Y-99190000D01*
X91756252Y-100610000D02*
X91233748Y-100610000D01*
X101865000Y-98940000D02*
X99005000Y-98940000D01*
X101865000Y-100860000D02*
X101865000Y-98940000D01*
X99005000Y-100860000D02*
X101865000Y-100860000D01*
D11*
X91323333Y-102012380D02*
X90990000Y-101536190D01*
X90751904Y-102012380D02*
X90751904Y-101012380D01*
X91132857Y-101012380D01*
X91228095Y-101060000D01*
X91275714Y-101107619D01*
X91323333Y-101202857D01*
X91323333Y-101345714D01*
X91275714Y-101440952D01*
X91228095Y-101488571D01*
X91132857Y-101536190D01*
X90751904Y-101536190D01*
X92275714Y-102012380D02*
X91704285Y-102012380D01*
X91990000Y-102012380D02*
X91990000Y-101012380D01*
X91894761Y-101155238D01*
X91799523Y-101250476D01*
X91704285Y-101298095D01*
X99281904Y-98642380D02*
X99281904Y-97642380D01*
X99520000Y-97642380D01*
X99662857Y-97690000D01*
X99758095Y-97785238D01*
X99805714Y-97880476D01*
X99853333Y-98070952D01*
X99853333Y-98213809D01*
X99805714Y-98404285D01*
X99758095Y-98499523D01*
X99662857Y-98594761D01*
X99520000Y-98642380D01*
X99281904Y-98642380D01*
X100805714Y-98642380D02*
X100234285Y-98642380D01*
X100520000Y-98642380D02*
X100520000Y-97642380D01*
X100424761Y-97785238D01*
X100329523Y-97880476D01*
X100234285Y-97928095D01*
M02*
