G04 #@! TF.GenerationSoftware,KiCad,Pcbnew,(5.1.5)-3*
G04 #@! TF.CreationDate,2021-02-13T14:20:36+01:00*
G04 #@! TF.ProjectId,Stacked desk light,53746163-6b65-4642-9064-65736b206c69,rev?*
G04 #@! TF.SameCoordinates,Original*
G04 #@! TF.FileFunction,Legend,Top*
G04 #@! TF.FilePolarity,Positive*
%FSLAX46Y46*%
G04 Gerber Fmt 4.6, Leading zero omitted, Abs format (unit mm)*
G04 Created by KiCad (PCBNEW (5.1.5)-3) date 2021-02-13 14:20:36*
%MOMM*%
%LPD*%
G04 APERTURE LIST*
%ADD10C,0.120000*%
%ADD11C,0.150000*%
G04 APERTURE END LIST*
D10*
X82462804Y-103939092D02*
X85262804Y-102339092D01*
X78062804Y-102339092D02*
X80862804Y-103939092D01*
X80862804Y-103939092D02*
X82462804Y-103939092D01*
X85262804Y-99939092D02*
X85262804Y-102339092D01*
X78062804Y-99939092D02*
X78062804Y-102339092D01*
X85262804Y-99939092D02*
X82862804Y-99939092D01*
X78062804Y-99939092D02*
X80462804Y-99939092D01*
X81662804Y-105239092D02*
X81662804Y-104239092D01*
X81162804Y-104739092D02*
X82162804Y-104739092D01*
X119137168Y-103939092D02*
X121937168Y-102339092D01*
X114737168Y-102339092D02*
X117537168Y-103939092D01*
X117537168Y-103939092D02*
X119137168Y-103939092D01*
X121937168Y-99939092D02*
X121937168Y-102339092D01*
X114737168Y-99939092D02*
X114737168Y-102339092D01*
X121937168Y-99939092D02*
X119537168Y-99939092D01*
X114737168Y-99939092D02*
X117137168Y-99939092D01*
X118337168Y-105239092D02*
X118337168Y-104239092D01*
X117837168Y-104739092D02*
X118837168Y-104739092D01*
X91756252Y-99190000D02*
X91233748Y-99190000D01*
X91756252Y-100610000D02*
X91233748Y-100610000D01*
X98145000Y-100860000D02*
X101005000Y-100860000D01*
X98145000Y-98940000D02*
X98145000Y-100860000D01*
X101005000Y-98940000D02*
X98145000Y-98940000D01*
D11*
X91333333Y-98812380D02*
X91000000Y-98336190D01*
X90761904Y-98812380D02*
X90761904Y-97812380D01*
X91142857Y-97812380D01*
X91238095Y-97860000D01*
X91285714Y-97907619D01*
X91333333Y-98002857D01*
X91333333Y-98145714D01*
X91285714Y-98240952D01*
X91238095Y-98288571D01*
X91142857Y-98336190D01*
X90761904Y-98336190D01*
X92285714Y-98812380D02*
X91714285Y-98812380D01*
X92000000Y-98812380D02*
X92000000Y-97812380D01*
X91904761Y-97955238D01*
X91809523Y-98050476D01*
X91714285Y-98098095D01*
X99266904Y-98702380D02*
X99266904Y-97702380D01*
X99505000Y-97702380D01*
X99647857Y-97750000D01*
X99743095Y-97845238D01*
X99790714Y-97940476D01*
X99838333Y-98130952D01*
X99838333Y-98273809D01*
X99790714Y-98464285D01*
X99743095Y-98559523D01*
X99647857Y-98654761D01*
X99505000Y-98702380D01*
X99266904Y-98702380D01*
X100790714Y-98702380D02*
X100219285Y-98702380D01*
X100505000Y-98702380D02*
X100505000Y-97702380D01*
X100409761Y-97845238D01*
X100314523Y-97940476D01*
X100219285Y-97988095D01*
M02*
